<?xml version="1.0" standalone="no"?>
<!DOCTYPE svg PUBLIC "-//W3C//DTD SVG 20010904//EN"
 "http://www.w3.org/TR/2001/REC-SVG-20010904/DTD/svg10.dtd">
<svg version="1.0" xmlns="http://www.w3.org/2000/svg"
 width="260.000000pt" height="260.000000pt" viewBox="0 0 260.000000 260.000000"
 preserveAspectRatio="xMidYMid meet">
<metadata>
Created by potrace 1.11, written by Peter Selinger 2001-2013
</metadata>
<g transform="translate(0.000000,260.000000) scale(0.100000,-0.100000)"
fill="#000000" stroke="none">
<path d="M571 2581 c-8 -5 -20 -7 -28 -4 -7 3 -13 0 -13 -6 0 -6 -3 -10 -7
-10 -26 4 -47 -4 -71 -30 -40 -42 -63 -71 -56 -71 4 0 1 -6 -5 -13 -6 -8 -8
-17 -4 -20 3 -4 2 -7 -4 -7 -6 0 -10 -16 -9 -35 1 -19 -2 -35 -6 -35 -4 0 -5
-10 -2 -22 3 -13 6 -27 7 -33 5 -20 19 -35 28 -30 5 4 9 2 9 -3 0 -6 17 -8 37
-7 20 2 42 1 47 -3 6 -3 20 -7 32 -8 27 -1 133 -53 164 -81 14 -12 36 -31 49
-42 13 -12 21 -21 17 -21 -3 0 10 -22 29 -50 19 -27 35 -56 35 -63 0 -8 9 -22
20 -32 11 -10 20 -22 20 -26 0 -20 113 -113 124 -102 3 4 6 2 6 -4 0 -12 46
-33 78 -36 12 -1 22 -4 22 -7 0 -12 133 -1 183 15 43 14 60 27 100 78 52 64
120 190 110 201 -4 3 -1 6 5 6 6 0 13 9 17 19 3 11 20 33 36 49 32 31 63 35
119 17 56 -18 111 -101 80 -120 -6 -4 -8 -11 -5 -16 4 -5 2 -9 -4 -9 -5 0 -8
-9 -6 -20 2 -11 1 -20 -3 -20 -4 0 -8 -23 -9 -52 -1 -28 -6 -54 -10 -57 -4 -3
-8 -19 -7 -36 0 -16 -5 -46 -11 -65 -6 -19 -10 -46 -9 -60 1 -14 0 -29 -3 -33
-3 -5 -7 -27 -8 -50 -7 -80 -32 -173 -57 -209 -10 -14 -18 -29 -18 -33 0 -25
-43 -89 -96 -142 -79 -80 -130 -107 -219 -117 -12 -1 -26 -6 -33 -10 -7 -4
-16 -4 -22 -1 -5 3 -10 1 -10 -5 0 -6 -5 -8 -11 -4 -7 4 -44 8 -83 9 -75 3
-94 6 -113 18 -6 4 -14 3 -18 -3 -4 -6 -12 -4 -22 5 -9 9 -21 14 -29 11 -7 -3
-18 2 -24 10 -7 8 -17 14 -23 14 -9 0 -104 68 -134 97 -7 6 -13 19 -13 27 0
14 -19 21 -44 17 -5 -1 -12 2 -15 6 -3 4 -23 16 -44 25 -20 10 -43 29 -49 43
-6 14 -15 25 -20 25 -5 0 -7 4 -3 9 3 5 1 12 -4 16 -6 3 -8 11 -6 18 9 25 -47
68 -60 47 -9 -14 -65 17 -65 35 0 8 -5 15 -12 15 -6 0 -8 3 -5 7 4 3 -2 12
-12 20 -23 15 -54 7 -47 -13 3 -8 2 -14 -2 -14 -8 0 -11 -69 -11 -255 0 -168
1 -185 13 -185 6 0 5 -5 -1 -11 -11 -11 -11 -19 4 -56 3 -10 7 -22 8 -28 2 -5
4 -16 6 -24 9 -37 69 -80 101 -73 4 1 19 -3 33 -8 17 -6 25 -6 25 1 0 6 6 7
13 2 6 -4 22 -6 34 -4 13 1 28 -1 35 -6 17 -10 39 -10 61 0 9 4 17 4 17 0 0
-5 34 -8 75 -7 41 0 75 -2 75 -6 0 -4 7 -7 15 -7 8 0 15 5 15 10 0 6 5 6 13 0
6 -5 47 -8 90 -7 42 1 77 -1 77 -5 0 -3 25 -6 55 -6 30 0 55 5 55 10 0 6 3 6
8 0 9 -14 65 -13 74 0 5 7 8 6 8 -1 0 -7 21 -9 58 -6 31 2 107 5 167 6 61 0
113 6 117 11 5 7 8 7 8 0 0 -5 16 -10 35 -10 19 0 35 2 35 5 0 3 15 5 33 4 17
0 40 3 49 8 10 5 18 4 20 -3 2 -7 12 -7 28 -1 14 5 53 9 88 8 34 0 62 3 62 8
0 5 7 3 16 -5 13 -10 17 -10 25 2 6 10 9 11 9 1 0 -8 5 -10 13 -5 6 4 37 9 67
11 30 2 67 4 83 5 15 1 27 5 27 10 0 4 7 7 15 7 8 0 15 6 15 13 0 9 2 9 9 -1
13 -21 89 46 98 86 2 6 4 18 6 25 1 6 5 17 8 22 3 6 4 63 4 128 0 64 2 117 5
117 3 0 5 24 3 53 -2 28 -6 95 -9 147 -3 52 -6 110 -7 128 -1 17 -4 32 -7 32
-4 0 -6 17 -5 38 0 20 -2 41 -4 47 -3 5 -6 39 -6 76 -1 36 -5 72 -10 79 -6 9
-4 11 5 5 9 -6 10 -2 4 16 -4 13 -9 53 -10 89 -2 36 -3 71 -3 78 -1 8 -6 10
-13 6 -10 -6 -10 -5 -1 7 9 12 12 94 3 94 -1 0 -3 23 -5 50 -2 28 -4 50 -5 50
-1 0 -3 12 -4 26 -8 87 -62 179 -105 179 -9 0 -22 5 -29 12 -6 6 -27 11 -46
10 -19 -1 -38 3 -41 8 -4 6 -13 7 -23 2 -9 -5 -36 -8 -59 -8 -24 1 -43 -2 -43
-7 0 -4 -5 -5 -12 -1 -16 10 -43 13 -173 18 -60 3 -143 6 -183 8 -43 2 -72 -1
-72 -7 0 -7 -3 -7 -8 0 -9 13 -105 13 -114 0 -5 -6 -8 -5 -8 4 0 11 -3 11 -15
1 -8 -7 -15 -8 -15 -3 0 5 -6 10 -12 11 -7 0 -22 3 -33 5 -11 2 -28 0 -37 -5
-11 -5 -18 -5 -18 1 0 13 -84 5 -88 -9 -2 -5 -8 -8 -13 -4 -5 3 -22 8 -37 11
-43 9 -425 10 -444 1 -10 -5 -18 -3 -20 4 -3 8 -10 8 -27 -2 -15 -7 -21 -8
-17 -1 9 13 6 14 -13 2z m119 -56 c11 -2 20 1 20 6 0 6 5 7 12 3 16 -10 108
-11 108 -1 0 4 4 5 10 2 19 -11 50 -14 50 -4 0 6 4 7 10 4 19 -11 50 -14 50
-4 0 6 6 7 13 2 6 -4 29 -7 50 -6 20 1 37 -1 37 -6 0 -9 51 -8 68 3 7 4 12 3
12 -3 0 -7 8 -7 26 -1 14 6 31 7 37 3 6 -3 83 -7 171 -7 89 -1 166 -5 173 -9
6 -4 14 -3 17 2 3 5 22 7 41 5 19 -2 51 -6 70 -8 19 -2 35 0 35 4 0 4 19 4 42
0 26 -5 45 -4 49 1 3 6 11 4 17 -4 12 -14 51 -15 71 -2 6 3 11 3 11 -2 0 -4
51 -8 113 -9 96 0 118 -3 155 -22 23 -12 42 -26 43 -30 2 -18 8 -44 19 -76 6
-20 9 -40 5 -46 -3 -5 -3 -10 2 -10 4 0 8 -24 8 -52 0 -29 4 -59 9 -66 5 -7 6
-15 3 -19 -4 -3 -2 -14 4 -24 6 -12 6 -19 0 -19 -10 0 -7 -32 4 -50 3 -6 2
-10 -4 -10 -10 0 -7 -31 4 -50 3 -6 1 -10 -5 -10 -6 0 -8 -5 -4 -12 4 -6 8
-42 9 -79 2 -37 6 -73 10 -80 5 -7 4 -10 -3 -6 -6 5 -8 0 -5 -13 3 -11 10 -20
17 -20 8 0 8 -2 0 -8 -14 -9 -13 -54 1 -64 6 -5 4 -8 -5 -8 -13 0 -13 -1 0
-10 11 -7 12 -10 2 -10 -10 0 -9 -9 7 -35 11 -19 16 -35 12 -35 -5 0 -7 -15
-3 -32 3 -18 6 -50 6 -70 0 -21 4 -38 9 -38 4 0 5 -5 1 -12 -10 -16 -11 -308
-1 -308 4 0 4 -8 -1 -17 -5 -10 -8 -26 -7 -35 2 -10 0 -18 -5 -18 -5 0 -7 -8
-6 -17 5 -34 -17 -62 -65 -82 -26 -12 -57 -21 -68 -21 -11 0 -23 -5 -26 -10
-4 -7 -12 -7 -25 0 -11 6 -28 7 -42 2 -13 -5 -40 -8 -61 -8 -20 1 -37 -3 -37
-8 0 -4 -12 -5 -27 -1 -16 4 -34 7 -40 6 -7 0 -20 -2 -28 -3 -8 -1 -15 -5 -15
-10 0 -5 -5 -6 -12 -2 -14 9 -98 11 -98 3 0 -3 -57 -6 -127 -6 -71 -1 -139 -2
-153 -2 -14 -1 -32 -1 -40 -1 -50 1 -171 -9 -179 -15 -6 -3 -11 -2 -11 3 0 10
-30 9 -47 -1 -6 -4 -14 -1 -17 5 -5 10 -7 10 -12 -1 -5 -11 -8 -11 -15 0 -6 9
-9 10 -9 2 0 -8 -9 -9 -30 -3 -16 5 -30 6 -30 4 0 -3 -6 -2 -12 3 -17 10 -69
11 -90 0 -10 -4 -18 -4 -18 0 0 4 -37 9 -82 10 -114 2 -274 10 -328 17 -25 3
-57 7 -71 9 -29 4 -62 30 -52 41 4 3 0 6 -8 6 -11 0 -11 2 1 10 8 5 10 10 5
10 -6 0 -12 17 -13 38 -6 105 -11 170 -15 200 -2 17 -2 32 2 32 3 0 5 33 4 74
-2 59 1 75 13 80 9 3 23 -1 31 -10 13 -13 17 -13 24 -2 5 8 9 9 9 2 0 -6 10
-11 21 -10 16 1 23 -6 26 -24 2 -13 8 -27 14 -31 6 -3 9 -9 7 -13 -6 -13 38
-67 65 -79 15 -6 27 -15 27 -19 0 -4 9 -5 20 -3 15 3 40 -14 86 -58 65 -63
132 -107 160 -107 8 0 13 -4 10 -8 -3 -5 23 -14 57 -20 116 -22 265 -34 272
-23 2 4 20 8 41 9 20 2 46 7 56 13 11 6 25 8 32 6 7 -3 25 6 39 19 15 13 29
23 32 22 15 -9 178 149 184 178 1 10 8 28 14 39 6 11 10 23 9 28 -1 4 3 7 9 7
5 0 8 4 4 9 -3 5 2 16 10 25 9 8 15 17 15 18 -1 2 4 16 10 33 6 16 12 42 13
57 1 15 4 28 7 28 5 0 8 20 11 93 1 15 6 27 13 27 6 0 4 5 -4 10 -8 5 -10 10
-4 10 6 0 10 12 9 28 -1 15 1 31 3 37 3 5 7 21 9 35 2 14 6 43 9 65 3 22 6 59
7 82 1 22 6 39 11 35 5 -3 7 2 3 11 -3 10 -2 17 4 17 6 0 8 3 6 8 -6 12 26 37
48 37 45 -1 48 49 4 64 -17 6 -41 21 -53 34 -26 28 -78 65 -97 69 -8 2 -17 6
-20 11 -12 16 -99 28 -99 14 0 -6 -3 -8 -6 -4 -4 3 -12 1 -19 -6 -7 -7 -25
-24 -41 -39 -36 -33 -57 -58 -49 -58 3 0 0 -10 -7 -22 -7 -13 -11 -26 -10 -30
1 -3 -5 -12 -13 -18 -8 -7 -15 -16 -15 -20 0 -22 -82 -144 -115 -170 -41 -33
-40 -32 -135 -35 -56 -1 -74 3 -130 32 -74 38 -138 103 -182 185 -17 32 -57
84 -90 117 -60 59 -177 129 -197 116 -6 -3 -11 -1 -11 6 0 6 -8 9 -20 6 -11
-3 -20 -2 -20 3 0 9 -52 6 -68 -4 -22 -13 -32 5 -28 52 5 66 8 74 34 100 13
12 20 22 17 22 -4 0 0 6 7 14 16 15 54 30 83 31 11 0 25 4 32 8 7 4 23 5 38 3
14 -3 25 0 25 5 0 6 4 7 10 4 5 -3 19 -8 30 -10z"/>
<path d="M1650 2081 c-6 -12 -9 -21 -8 -22 41 -10 49 -8 46 13 -4 29 -24 34
-38 9z"/>
<path d="M856 803 c-3 -3 -40 -7 -82 -9 -42 -2 -83 -9 -90 -15 -10 -8 -14 -8
-14 -1 0 11 -51 9 -70 -3 -5 -3 -10 -2 -10 4 0 5 -16 8 -35 7 -19 -2 -36 2
-39 8 -3 7 -5 6 -5 -2 -1 -8 -9 -10 -25 -6 -13 3 -34 0 -46 -6 -18 -9 -21 -9
-15 0 5 7 -6 5 -24 -6 -17 -10 -31 -23 -31 -29 0 -7 -11 -22 -25 -35 -20 -18
-58 -103 -60 -132 0 -3 -3 -10 -7 -14 -5 -4 -8 -14 -8 -22 0 -7 -9 -26 -20
-42 -11 -15 -17 -30 -13 -34 3 -3 1 -6 -6 -6 -7 0 -10 -4 -7 -8 3 -5 -2 -20
-12 -33 -9 -13 -18 -35 -20 -49 -2 -13 -8 -30 -14 -37 -5 -7 -7 -17 -3 -22 3
-6 -3 -44 -14 -83 -19 -73 -23 -138 -8 -138 5 0 6 -4 3 -9 -3 -4 8 -20 24 -35
17 -14 30 -23 30 -18 0 4 49 7 110 7 60 0 110 4 110 8 0 5 5 5 12 1 17 -11
108 -11 108 -1 0 5 5 5 12 1 17 -11 138 -11 138 -1 0 5 5 5 12 1 17 -11 78
-11 78 -1 0 4 5 5 12 1 7 -4 35 -9 63 -10 27 -2 67 -4 88 -6 21 -2 41 1 44 5
3 5 9 3 14 -4 8 -12 10 -12 18 0 7 11 9 11 14 0 5 -12 6 -12 6 0 1 11 4 11 17
0 13 -10 17 -10 24 0 6 11 9 11 13 0 5 -12 6 -12 6 0 1 11 4 11 17 0 13 -10
17 -10 25 2 7 11 9 11 9 0 0 -10 3 -11 14 -2 11 9 15 9 19 -1 4 -10 7 -10 15
1 8 11 10 11 15 0 5 -12 6 -12 6 0 1 11 4 11 17 0 13 -10 17 -10 25 2 7 11 9
11 9 0 0 -10 3 -11 14 -2 11 9 15 9 19 -1 4 -10 8 -10 16 2 8 12 11 12 11 1 0
-10 3 -11 14 -2 11 9 15 9 19 -1 4 -10 8 -10 16 2 8 12 11 12 11 1 0 -10 3
-11 14 -2 11 9 15 9 19 -1 4 -10 8 -10 16 2 8 12 11 12 11 1 0 -10 3 -11 14
-2 11 9 15 9 19 -1 4 -10 8 -10 16 2 8 12 11 12 11 1 0 -10 3 -11 14 -2 11 9
15 9 19 -1 4 -10 8 -10 16 2 7 10 11 11 11 3 0 -7 7 -10 15 -7 8 4 22 1 30 -6
12 -10 15 -10 15 1 0 9 3 10 8 4 8 -12 212 -13 230 -1 7 4 12 3 12 -1 0 -11
44 -14 248 -16 89 -1 162 1 162 5 0 3 8 5 18 3 9 -1 25 1 34 6 11 6 18 5 21
-4 3 -9 8 -9 21 2 9 8 19 11 23 8 3 -4 12 -2 20 4 7 6 13 8 13 3 0 -9 34 36
36 49 1 4 3 10 4 15 6 18 -3 60 -20 98 -10 23 -21 52 -23 65 -2 13 -7 31 -10
39 -4 8 -9 29 -11 45 -2 17 -6 37 -10 45 -3 8 -7 25 -9 37 -2 12 -6 26 -10 29
-4 4 -7 18 -7 31 0 12 -4 23 -10 23 -5 0 -7 6 -4 13 2 7 -7 51 -21 97 -14 47
-27 93 -30 103 -4 16 -41 55 -55 57 -3 1 -70 3 -150 5 -80 2 -155 6 -167 9
-14 3 -23 0 -23 -7 0 -8 -3 -8 -12 1 -6 6 -17 8 -27 3 -9 -5 -25 -7 -36 -5
-18 3 -43 4 -120 4 -11 0 -59 1 -107 1 -48 0 -92 -2 -98 -6 -5 -3 -10 -3 -10
2 0 4 -87 9 -193 10 -105 0 -217 2 -247 2 -30 1 -73 -1 -94 -3 -22 -3 -45 -1
-52 5 -8 7 -14 7 -18 0 -4 -7 -15 -7 -30 -1 -13 5 -27 6 -30 3z m155 -52 c7
12 9 12 9 -1 0 -12 2 -12 9 -1 6 10 10 10 16 1 6 -9 10 -9 16 1 7 11 9 11 9
-1 0 -13 1 -13 10 0 5 8 10 10 10 5 0 -6 25 -9 60 -7 33 1 60 -1 60 -5 0 -10
93 -9 109 1 6 4 11 3 11 -3 0 -10 51 -8 70 4 5 3 10 2 10 -3 0 -5 12 -10 28
-10 96 -2 121 -2 154 2 20 2 41 7 47 10 6 4 11 3 11 -2 0 -5 27 -9 60 -7 33 1
63 -2 66 -7 3 -5 12 -1 20 9 7 10 14 13 14 8 0 -6 36 -11 88 -12 48 -1 142 -3
210 -5 67 -2 122 0 122 5 0 4 8 2 19 -5 21 -13 59 -97 65 -143 2 -16 7 -38 11
-48 4 -9 5 -24 1 -32 -3 -8 -1 -15 5 -15 6 0 7 -4 4 -10 -3 -5 -2 -10 2 -10 5
0 10 -10 11 -22 4 -40 8 -57 15 -64 4 -4 7 -20 7 -36 0 -15 4 -28 10 -28 5 0
7 -7 4 -15 -4 -8 -2 -15 3 -15 5 0 9 -10 8 -23 -1 -12 1 -27 6 -32 4 -6 11
-26 14 -45 3 -19 9 -39 13 -45 25 -35 -12 -73 -75 -78 -16 -1 -31 -6 -35 -12
-5 -6 -8 -6 -8 1 0 12 -90 11 -109 0 -6 -4 -11 -3 -11 2 0 10 -92 8 -109 -2
-6 -4 -11 -3 -11 2 0 10 -92 8 -109 -2 -6 -4 -11 -3 -11 2 0 10 -92 8 -109 -2
-6 -4 -11 -3 -11 2 0 4 -25 8 -55 7 -31 -1 -57 1 -59 4 -2 3 -113 6 -245 5
-133 -1 -241 2 -241 5 0 11 -224 7 -232 -4 -5 -7 -8 -7 -8 0 0 6 -97 10 -272
9 -150 0 -281 3 -290 8 -10 5 -18 5 -18 0 0 -4 -9 -8 -20 -8 -11 0 -20 3 -20
6 0 3 -18 5 -40 5 -22 0 -40 -2 -40 -5 0 -6 -70 -4 -76 2 -2 2 -6 19 -9 37 -3
18 -6 36 -7 39 -1 4 3 17 10 28 6 12 9 24 6 27 -3 3 -3 11 2 18 4 7 9 24 10
38 2 14 5 33 7 41 2 8 7 30 11 48 4 17 12 32 17 32 6 0 8 4 5 9 -4 5 -1 11 4
13 6 2 13 10 15 18 8 38 18 60 26 60 5 0 8 3 8 8 -1 4 0 10 1 15 1 4 4 12 5
17 1 6 3 11 5 13 1 1 3 9 5 17 6 34 35 90 45 90 6 0 8 4 5 10 -9 15 46 62 67
57 10 -3 18 -2 18 2 0 10 45 12 165 8 33 -2 68 1 77 5 10 5 18 3 20 -4 3 -8
10 -8 23 -1 11 6 64 10 118 9 53 0 97 3 97 8 0 5 7 3 16 -5 13 -10 17 -10 25
2z"/>
<path d="M604 638 c-6 -7 -10 -25 -9 -40 0 -16 -3 -28 -7 -28 -4 0 -7 -3 -7
-7 3 -17 -1 -33 -8 -32 -5 1 -10 0 -13 -1 -3 -1 -22 -4 -43 -5 -46 -3 -60 -15
-50 -41 8 -19 63 -32 63 -15 0 5 10 8 23 9 52 0 74 18 68 55 0 4 2 7 7 7 4 0
8 17 8 38 0 20 2 43 4 51 6 19 -24 26 -36 9z"/>
<path d="M1255 640 c-4 -6 -11 -7 -17 -4 -7 5 -9 1 -5 -9 3 -10 2 -17 -2 -17
-5 0 -7 -8 -4 -19 3 -11 -6 -29 -21 -46 -14 -15 -26 -22 -26 -15 0 10 -3 10
-14 1 -11 -9 -15 -9 -20 1 -5 10 -7 10 -12 0 -3 -6 -9 -10 -14 -7 -4 3 -13 -1
-19 -9 -22 -27 21 -42 102 -37 19 1 79 54 77 68 -1 4 -6 16 -11 26 -5 9 -6 17
-1 17 4 0 8 9 8 20 0 11 -4 20 -9 20 -4 0 -5 5 -2 10 3 6 4 10 1 10 -3 0 -8
-5 -11 -10z"/>
<path d="M1485 633 c-12 -28 -14 -43 -5 -43 5 0 2 -13 -8 -29 -16 -28 -19 -29
-73 -26 -69 5 -92 -12 -61 -43 14 -14 30 -18 67 -16 27 2 51 8 55 15 6 8 9 8
13 -2 4 -10 6 -10 6 -1 1 6 7 12 15 12 31 0 43 99 16 130 -17 19 -18 19 -25 3z"/>
<path d="M1715 638 c-2 -7 -5 -20 -8 -28 -2 -8 0 -25 4 -37 5 -14 5 -23 -1
-23 -6 0 -10 -6 -10 -14 0 -19 -7 -23 -55 -30 -22 -4 -42 -11 -43 -16 -2 -6
-8 -8 -13 -4 -5 3 -9 1 -9 -4 0 -41 109 -48 146 -10 25 25 37 90 22 121 -5 10
-5 17 1 17 5 0 7 9 4 20 -6 22 -31 27 -38 8z"/>
<path d="M1993 630 c3 -11 1 -20 -5 -20 -5 0 -6 -4 -3 -10 3 -5 3 -16 -2 -22
-4 -7 -8 -21 -8 -32 0 -23 -27 -33 -85 -31 -52 2 -70 -8 -70 -40 0 -20 4 -22
49 -19 27 1 55 5 62 10 8 5 10 3 4 -5 -6 -10 -3 -11 11 -3 11 5 25 7 32 5 6
-3 12 0 12 7 0 6 4 9 9 6 18 -12 32 25 34 93 1 51 -2 72 -11 76 -25 10 -34 5
-29 -15z"/>
<path d="M820 631 c0 -7 -5 -9 -10 -6 -6 4 -10 3 -9 -2 1 -4 0 -11 -1 -15 -1
-5 -3 -16 -4 -25 -2 -36 -30 -61 -63 -58 -17 1 -35 5 -40 8 -6 4 -18 -2 -27
-12 -15 -16 -15 -19 2 -34 19 -17 106 -32 96 -16 -3 5 1 9 9 9 23 0 76 60 72
81 -2 10 0 19 4 19 14 0 8 30 -11 47 -12 10 -18 12 -18 4z"/>
<path d="M1031 612 c-6 -11 -7 -22 -4 -26 3 -3 1 -6 -6 -6 -7 0 -10 -4 -6 -9
3 -6 -4 -18 -15 -29 -17 -15 -29 -18 -60 -12 -30 6 -43 3 -54 -9 -20 -22 -6
-34 57 -46 9 -2 22 -7 27 -10 6 -3 10 -1 10 4 0 6 3 10 8 9 14 -4 52 13 52 23
0 6 4 8 9 5 12 -8 17 11 16 68 0 52 -16 71 -34 38z"/>
<path d="M1476 454 c-14 -10 -16 -14 -5 -14 8 0 10 -3 4 -8 -5 -4 -10 -13 -11
-19 -1 -7 -2 -20 -2 -28 -3 -20 -36 -36 -84 -40 -46 -4 -61 -15 -53 -37 7 -17
73 -30 82 -15 3 4 11 6 19 3 8 -3 14 -1 14 5 0 6 4 8 10 4 5 -3 18 3 30 15 11
11 17 20 13 20 -5 0 -1 4 6 9 16 11 19 78 5 104 -8 13 -12 14 -28 1z"/>
<path d="M1017 423 c-2 -5 -7 -20 -11 -36 -9 -38 -37 -63 -69 -62 -15 1 -30 5
-33 8 -4 3 -13 -1 -22 -9 -12 -13 -13 -19 -2 -40 8 -13 17 -24 22 -24 5 0 6 6
2 13 -5 9 -4 9 6 0 10 -9 17 -10 27 -2 8 8 13 8 13 1 0 -19 40 0 74 35 25 26
33 42 30 60 -4 18 -1 23 8 17 10 -6 11 -5 1 8 -7 8 -9 19 -5 23 4 5 1 5 -5 1
-7 -4 -13 -2 -13 3 0 13 -17 15 -23 4z"/>
<path d="M1230 420 c-13 -9 -13 -10 0 -10 11 -1 10 -4 -5 -16 -17 -13 -18 -16
-5 -24 8 -5 10 -10 4 -10 -6 0 -16 -11 -23 -24 -12 -21 -19 -23 -77 -21 -35 2
-61 -1 -58 -6 3 -5 -1 -9 -8 -9 -7 0 -2 -10 12 -23 20 -19 34 -22 79 -20 31 1
57 7 59 13 2 5 7 8 12 5 5 -3 11 4 15 15 4 11 10 18 15 15 11 -7 27 66 20 94
-6 28 -19 35 -40 21z"/>
<path d="M1999 423 c-1 -5 -1 -11 0 -15 0 -5 -4 -8 -10 -8 -8 0 -8 -5 1 -15
10 -12 10 -15 0 -15 -8 0 -10 -3 -7 -7 4 -3 0 -14 -8 -23 -12 -13 -25 -15 -67
-10 -29 4 -55 5 -58 1 -3 -3 -11 -6 -17 -7 -27 -2 -31 -4 -37 -20 -3 -8 -2
-13 3 -10 5 3 11 0 14 -7 3 -9 21 -13 53 -11 27 1 57 -3 67 -8 11 -5 17 -5 17
1 0 6 6 8 14 5 8 -3 17 0 21 5 3 6 10 9 14 6 24 -14 58 68 38 93 -5 7 -7 15
-4 19 8 7 -11 33 -24 33 -5 0 -10 -3 -10 -7z"/>
<path d="M1709 398 c-5 -10 -8 -18 -5 -18 3 0 1 -13 -5 -28 -9 -25 -14 -29
-49 -28 -59 2 -80 -9 -78 -39 2 -23 17 -32 43 -25 6 2 29 4 53 5 61 3 75 21
82 100 4 38 0 52 -16 52 -8 0 -19 -9 -25 -19z"/>
<path d="M565 400 c-3 -5 -6 -25 -7 -45 -2 -49 -31 -68 -95 -63 -35 3 -52 -1
-64 -13 -15 -15 -14 -17 10 -30 27 -15 111 -18 146 -6 11 4 28 19 39 33 15 22
16 28 5 35 -8 5 -9 9 -4 9 14 0 13 62 -2 78 -14 14 -20 15 -28 2z"/>
<path d="M767 392 c-9 -10 -15 -21 -12 -24 3 -3 1 -18 -5 -33 -6 -15 -13 -25
-17 -21 -3 3 -13 0 -21 -7 -13 -10 -14 -9 -7 3 7 12 6 13 -7 3 -8 -7 -18 -10
-21 -6 -4 3 -7 1 -7 -6 0 -7 -5 -9 -10 -6 -6 4 -18 1 -26 -6 -13 -10 -12 -13
4 -24 23 -17 49 -20 92 -11 47 10 74 48 74 105 1 49 -12 61 -37 33z"/>
</g>
</svg>
