<?xml version="1.0" standalone="no"?>
<!DOCTYPE svg PUBLIC "-//W3C//DTD SVG 20010904//EN"
 "http://www.w3.org/TR/2001/REC-SVG-20010904/DTD/svg10.dtd">
<svg version="1.0" xmlns="http://www.w3.org/2000/svg"
 width="700.000000pt" height="700.000000pt" viewBox="0 0 700.000000 700.000000"
 preserveAspectRatio="xMidYMid meet">
<metadata>
Created by potrace 1.11, written by Peter Selinger 2001-2013
</metadata>
<g transform="translate(0.000000,700.000000) scale(0.100000,-0.100000)"
fill="#000000" stroke="none">
<path d="M1405 6984 c-217 -47 -380 -194 -456 -411 -27 -78 -34 -129 -34 -253
0 -82 4 -112 18 -138 27 -49 84 -71 182 -72 257 -1 549 -131 750 -334 99 -100
167 -194 240 -331 76 -143 151 -250 234 -333 232 -235 511 -336 833 -301 173
19 306 79 410 185 110 113 156 184 305 474 50 96 106 202 126 235 60 101 137
167 213 181 22 3 47 8 56 10 24 4 118 -20 158 -41 79 -41 183 -138 206 -192
21 -49 17 -85 -16 -146 -27 -51 -77 -261 -104 -442 -4 -22 -11 -67 -16 -100
-5 -33 -12 -82 -15 -110 -4 -27 -8 -62 -11 -77 -2 -15 -6 -49 -9 -75 -3 -27
-7 -64 -10 -83 -2 -19 -7 -55 -10 -80 -3 -25 -8 -52 -10 -60 -2 -8 -7 -35 -10
-60 -6 -39 -39 -215 -50 -260 -54 -234 -146 -445 -281 -647 -209 -312 -453
-453 -884 -511 -30 -4 -134 -6 -230 -5 -144 1 -196 6 -296 26 -319 67 -570
217 -766 457 -32 40 -46 48 -125 73 -136 42 -252 119 -307 205 -14 20 -34 69
-46 107 -50 163 -70 185 -165 185 -112 0 -152 23 -225 127 -59 84 -82 103
-127 103 -34 0 -72 -31 -74 -59 -1 -9 -2 -29 -4 -46 -3 -32 -15 -253 -21 -375
-4 -105 -4 -566 0 -620 3 -25 7 -85 11 -135 14 -207 28 -274 80 -380 68 -141
145 -190 332 -210 35 -4 75 -9 90 -11 16 -1 57 -6 93 -10 36 -4 79 -8 95 -10
17 -2 120 -5 230 -8 205 -6 419 -15 490 -21 22 -2 92 -7 155 -10 63 -4 131 -8
150 -10 100 -10 415 -19 645 -19 227 0 352 3 685 19 41 2 158 6 260 9 102 4
228 9 280 11 52 3 154 7 225 10 72 3 157 7 190 10 33 3 105 7 160 10 55 3 125
7 155 10 30 2 96 7 145 10 214 14 387 31 510 51 145 24 271 84 343 164 36 40
90 160 103 230 6 36 13 173 15 305 2 132 5 254 8 270 25 160 26 564 1 735 -4
27 -12 97 -20 170 -3 25 -11 101 -20 170 -8 69 -17 159 -20 200 -3 41 -8 100
-10 130 -3 30 -8 87 -10 125 -13 231 -16 284 -20 322 -2 23 -7 91 -10 150 -3
59 -8 124 -10 143 -2 19 -7 73 -10 120 -13 173 -15 206 -21 270 -3 36 -7 76
-9 90 -2 14 -7 50 -10 80 -9 85 -15 130 -27 195 -6 33 -12 71 -14 84 -26 212
-119 341 -294 409 -119 46 -158 50 -545 58 -154 3 -314 7 -355 8 -160 8 -379
17 -470 21 -52 2 -158 6 -235 9 -77 4 -381 9 -675 11 -294 3 -647 8 -785 11
-137 2 -473 6 -745 9 -414 3 -506 1 -565 -11z m1100 -148 c175 -6 627 -14
1220 -21 412 -5 539 -8 780 -20 66 -3 172 -7 235 -10 63 -3 169 -7 235 -10 66
-3 230 -7 365 -10 286 -6 324 -10 391 -38 105 -44 180 -178 214 -387 3 -19 8
-42 10 -50 2 -8 7 -37 10 -65 3 -27 8 -61 10 -75 6 -29 12 -88 20 -185 11
-137 14 -199 20 -399 18 -631 22 -706 50 -876 13 -83 19 -121 30 -197 3 -21 8
-49 10 -63 3 -14 8 -56 11 -95 4 -38 8 -83 10 -100 5 -49 14 -424 18 -800 4
-264 1 -368 -9 -425 -7 -41 -16 -93 -19 -115 -8 -50 -46 -114 -83 -141 -58
-43 -188 -96 -265 -109 -18 -3 -44 -7 -58 -10 -54 -9 -160 -18 -380 -30 -52
-3 -129 -8 -170 -10 -511 -30 -653 -37 -1045 -50 -254 -8 -415 -15 -545 -21
-69 -4 -201 -7 -295 -7 -149 -1 -240 3 -465 18 -83 6 -339 15 -580 20 -301 7
-516 17 -630 30 -25 2 -74 7 -110 10 -36 3 -74 7 -85 9 -18 3 -65 10 -155 22
-176 24 -230 91 -246 303 -3 47 -8 96 -9 110 -24 184 -24 855 0 887 15 21 72
25 139 9 109 -25 167 -77 228 -205 83 -171 159 -241 300 -274 92 -23 116 -38
203 -126 230 -233 472 -374 755 -439 128 -30 190 -36 365 -36 157 0 260 8 340
25 22 5 56 11 75 14 108 17 261 66 364 117 251 125 464 364 625 702 50 104
127 321 137 386 3 20 8 39 10 43 5 8 41 199 50 263 2 17 6 46 8 65 12 76 18
126 21 150 4 34 34 250 39 275 3 19 13 76 21 135 25 165 58 343 71 377 14 38
80 111 104 114 6 1 14 2 19 3 5 0 13 4 17 9 4 4 15 7 25 7 10 0 32 12 49 26
27 23 31 32 28 68 -3 44 -10 49 -118 92 -27 11 -77 48 -125 95 -95 90 -170
142 -283 192 -156 71 -232 78 -324 32 -125 -63 -220 -177 -323 -390 -96 -198
-267 -479 -329 -541 -112 -110 -211 -154 -361 -159 -237 -9 -506 104 -692 291
-81 83 -130 152 -193 274 -57 112 -76 142 -148 230 -127 159 -304 301 -487
393 -175 88 -330 116 -481 88 -26 -5 -53 -7 -60 -4 -25 10 -37 120 -22 203 10
59 66 189 93 218 103 110 175 156 260 167 28 4 61 8 75 10 14 2 66 7 115 11
50 3 91 7 93 8 4 4 664 -3 827 -8z"/>
<path d="M4383 5698 c-21 -10 -41 -50 -37 -75 1 -7 2 -18 3 -23 0 -6 15 -19
32 -29 49 -30 104 -5 112 50 6 33 -11 65 -40 78 -29 13 -41 13 -70 -1z"/>
<path d="M2227 2154 c-1 -1 -54 -5 -117 -8 -63 -4 -126 -9 -140 -10 -155 -21
-423 -26 -680 -14 -157 7 -214 -4 -300 -56 -111 -68 -211 -234 -305 -503 -25
-73 -67 -170 -93 -215 -106 -186 -150 -308 -221 -624 -28 -121 -52 -230 -55
-244 -3 -14 -9 -47 -15 -75 -27 -141 10 -237 113 -290 l59 -30 751 -1 c413 -1
870 -4 1016 -8 146 -4 335 -9 420 -11 85 -3 367 -7 625 -10 831 -9 1134 -15
1425 -30 560 -27 1419 -27 1560 0 9 2 41 6 71 10 202 24 299 81 334 197 22 74
12 124 -53 289 -41 102 -68 200 -222 789 -72 278 -143 542 -157 587 -28 92
-65 150 -115 181 -41 25 -67 30 -208 37 -58 2 -154 8 -215 11 -60 4 -711 8
-1445 9 -734 1 -1429 5 -1545 9 -213 7 -484 13 -488 10z m798 -148 c595 -10
707 -16 920 -43 62 -8 104 -8 175 1 30 4 84 10 118 15 66 8 136 8 697 -3 182
-3 472 -9 645 -12 389 -6 419 -8 461 -32 64 -35 117 -162 155 -372 39 -215
204 -847 294 -1125 16 -49 31 -103 33 -120 8 -57 -35 -105 -104 -119 -13 -2
-62 -12 -109 -22 -75 -15 -161 -17 -725 -18 -352 -1 -734 3 -850 7 -115 5
-415 10 -665 12 -405 3 -557 7 -765 21 -33 2 -346 6 -695 9 -707 5 -1439 14
-1515 19 -285 20 -281 20 -420 16 -124 -4 -171 15 -205 79 -12 24 -16 117 -5
161 3 14 8 41 11 60 11 66 93 377 122 461 38 110 66 175 123 284 25 50 74 167
109 260 68 185 117 279 177 338 78 79 88 81 538 102 72 4 164 8 205 10 41 3
203 8 360 11 157 4 286 7 287 8 3 2 222 -1 628 -8z"/>
<path d="M1573 1735 c-21 -14 -38 -70 -47 -147 -6 -55 -40 -122 -72 -145 -42
-29 -69 -36 -161 -38 -99 -2 -123 -17 -123 -76 0 -60 30 -74 150 -72 137 2
221 34 270 103 21 30 44 121 55 220 3 30 8 72 11 92 4 28 1 41 -15 57 -25 25
-39 26 -68 6z"/>
<path d="M4570 1720 c-13 -13 -20 -34 -21 -62 -4 -240 -20 -268 -169 -293
-103 -17 -150 -44 -150 -86 0 -55 43 -78 157 -83 116 -4 191 26 236 97 36 55
50 130 50 279 0 104 -3 131 -16 146 -22 25 -63 26 -87 2z"/>
<path d="M5324 1715 c-20 -20 -24 -35 -25 -82 0 -32 -2 -65 -4 -73 -2 -8 -6
-28 -9 -43 -7 -40 -36 -86 -69 -111 -26 -19 -40 -21 -158 -19 -156 3 -182 -6
-200 -67 -20 -67 20 -117 83 -104 13 2 59 7 103 9 136 9 174 15 247 35 131 36
136 46 142 273 3 135 2 160 -13 177 -26 31 -69 33 -97 5z"/>
<path d="M3270 1700 c-23 -23 -21 -17 -25 -91 -4 -79 -21 -125 -58 -151 -27
-19 -46 -23 -130 -25 -109 -3 -142 -15 -153 -57 -16 -66 32 -96 153 -96 223 0
315 85 313 290 0 47 -1 92 -3 101 -8 49 -62 64 -97 29z"/>
<path d="M2135 1701 c-24 -10 -36 -31 -72 -136 -16 -47 -39 -92 -55 -108 -26
-26 -33 -28 -105 -27 -135 2 -148 1 -171 -20 -30 -28 -29 -80 2 -109 28 -26
106 -48 158 -45 45 3 133 31 168 53 53 33 108 94 136 149 24 47 29 69 29 130
0 68 -2 75 -28 98 -31 26 -32 27 -62 15z"/>
<path d="M3931 1691 c-6 -10 -10 -45 -10 -78 1 -74 -20 -127 -63 -154 -30 -19
-42 -20 -128 -14 -148 11 -159 10 -183 -13 -29 -30 -29 -95 1 -125 20 -20 34
-22 136 -24 181 -4 303 41 349 129 15 30 19 57 18 135 -2 117 -3 126 -20 147
-20 23 -87 21 -100 -3z"/>
<path d="M2740 1683 c-22 -9 -27 -19 -55 -108 -26 -86 -66 -140 -112 -151 -20
-6 -85 -2 -128 6 -6 2 -29 2 -52 1 -106 -3 -113 -126 -10 -145 249 -45 338
-13 399 146 28 76 48 186 38 214 -13 34 -46 49 -80 37z"/>
<path d="M3911 1212 c-6 -11 -13 -49 -16 -86 -12 -152 -74 -197 -285 -210 -68
-5 -85 -11 -97 -39 -14 -30 -1 -60 37 -87 27 -19 45 -23 104 -23 216 2 365
120 372 295 4 107 -24 168 -77 168 -17 0 -32 -7 -38 -18z"/>
<path d="M3271 1128 c-12 -12 -31 -54 -42 -93 -42 -139 -69 -167 -177 -190
-36 -7 -78 -8 -129 -2 -89 11 -118 2 -128 -42 -14 -66 58 -111 183 -115 140
-4 229 24 301 94 61 59 83 117 88 225 3 76 1 93 -14 111 -28 34 -58 38 -82 12z"/>
<path d="M2678 1123 c-9 -10 -25 -47 -37 -83 -47 -145 -75 -165 -218 -162 -91
1 -106 -1 -123 -18 -11 -11 -20 -32 -20 -48 0 -99 166 -134 312 -65 112 53
186 147 193 245 6 85 -26 148 -75 148 -9 0 -24 -8 -32 -17z"/>
<path d="M5333 1118 c-14 -16 -20 -39 -22 -78 -3 -73 -17 -115 -47 -139 -23
-18 -37 -19 -192 -14 -185 6 -232 -3 -253 -51 -14 -31 -5 -72 20 -85 10 -6 69
-13 132 -16 63 -3 134 -8 159 -11 145 -17 223 3 276 72 32 40 52 99 49 144 -2
23 -16 114 -21 133 -1 4 -2 13 -3 21 -2 22 -30 46 -55 46 -12 0 -32 -10 -43
-22z"/>
<path d="M4577 1098 c-10 -8 -21 -37 -27 -71 -19 -122 -79 -168 -216 -168 -77
0 -118 -12 -143 -42 -29 -35 -19 -91 21 -116 55 -34 198 -35 275 -1 81 35 158
127 179 215 3 11 5 51 6 88 0 51 -4 73 -18 88 -20 22 -52 25 -77 7z"/>
<path d="M1451 1073 c-18 -15 -22 -31 -25 -101 -4 -95 -23 -140 -70 -168 -25
-14 -56 -18 -162 -20 -73 -1 -146 -5 -163 -9 -35 -8 -53 -33 -47 -67 3 -13 5
-26 5 -30 2 -14 47 -37 86 -44 22 -4 83 -7 135 -6 276 1 341 53 342 274 0 141
-1 147 -22 168 -25 25 -51 25 -79 3z"/>
<path d="M2006 1068 c-19 -17 -28 -39 -35 -85 -18 -116 -63 -150 -231 -178
-81 -13 -91 -17 -101 -42 -21 -56 49 -104 155 -108 132 -4 262 89 307 220 7
22 14 47 15 55 5 53 6 68 5 93 -1 34 -33 67 -65 67 -14 0 -36 -10 -50 -22z"/>
</g>
</svg>
