<?xml version="1.0" encoding="utf-8"?>
<svg version="1.1" id="Colomba" xmlns="http://www.w3.org/2000/svg" xmlns:xlink="http://www.w3.org/1999/xlink" x="0px"
	 y="0px" viewBox="0 0 600 600" style="enable-background:new 0 0 600 600;fill:#B66B1A" xml:space="preserve">
<path d="M189.8,0c18.4,1.7,41,1.3,63.2,1.6c19.8,0.3,39.9,0.7,59.8,0.6c46.1-0.3,92,3.6,138,4.5c15.4,0.3,30.5-1.5,45.3,4.7
	c12.6,5.2,20.4,14,23.1,27c5.9,28,7.5,56.5,9.6,84.9c2.4,33.9,3.5,67.8,8.2,101.6c3.5,25.3,5.2,51.3,1.7,77.1
	c-1.6,11.8-0.5,23.9-0.7,35.9c-0.5,28.6-12.5,43.3-40.4,47.5c-19.5,3-39.2,3.8-58.8,5.3c-45.1,3.4-90.3,3.8-135.5,6.2
	c-40.2,2.2-80.4-0.9-120.5-3.8c-19.3-1.4-38.6,0-58-2.4c-8.8-1-17.7-1.9-26.4-3.3c-13.6-2.1-23.2-18-25.2-37.7
	c-3.6-36-2.5-71.8,0-107.8c0.3-4,0.2-8.2,4.9-9.5c4.8-1.3,8.2,1.6,10.5,5.5c5.1,8.6,10.3,15.7,22.6,14c7-1,10.8,6,11.9,12.2
	c3.5,18.9,17.4,26.2,33.4,31.3c2.6,0.8,5.5,0.8,7.2,3.2c35,48.1,100.1,51.8,145,35.6c24.9-9,41-29.2,53.5-53.5
	c22.4-43.4,19-91.6,29.8-137.1c1.2-4.9,1.1-10.7,3.8-14.5c8.2-11.6,1.4-18.1-6.6-25.2c-15.9-14.2-34-12.2-44.8,5.9
	c-11.3,18.9-18.3,40.2-32.8,57.3c-7.9,9.4-16.8,16.1-29.5,18.9c-47.5,10.6-83.2-15.9-100.5-50.6c-11.7-23.6-28.1-41.2-52.4-51.6
	c-11.6-5-23.6-7.9-36-7.6C82.5,76.5,78.4,71,78,61.5C76.6,31.3,93.4,0,134.7,0C151.8,0,168.8,0,189.8,0z M183.9,13.3
	c-10.1,0-20.2,0.2-30.2-0.1c-10.5-0.3-20.8,1.5-31.2,2.1C100.9,16.7,85.4,41.8,89,61.7c0.7,3.8,1.8,5.7,5.9,4.6
	c35-9.5,83.4,30.1,96.7,59.6c10.8,23.9,30.4,39.8,54.8,46.8c16.2,4.6,33.9,5.6,49.3-8c10.4-9.2,15.2-21.2,22.2-32.1
	c9.2-14.2,13.1-31.6,26.3-43.4c8.1-7.3,16.8-12.8,28.3-8.7c12.4,4.5,24.3,9.8,33.5,19.8c3.9,4.2,7.9,8.5,13.9,10
	c3.6,0.9,8,1.8,8.1,6.9c0.1,5.4-3.9,7.3-8.2,8.3c-7.7,1.7-12.5,6.5-14.1,13.8c-2.2,10.2-3.2,20.6-5.1,30.8
	c-6.8,36.5-6.7,74-23,109.1c-15.9,34.2-38.2,60.9-74.6,70.1c-53.4,13.6-103.8,7.4-144-35.8c-4-4.3-8.2-8.2-14.4-9.2
	c-12.6-1.9-21.5-9.5-26.1-20.6c-4.9-11.8-10.2-20.3-25-21.8c-8-0.8-9.1-0.2-9.4,7c-1,28.5-0.8,57,2.5,85.4
	c1.7,14.2,5.8,18.2,19,20.4c50.5,8.5,101.8,4.7,152.6,9.2c24.2,2.1,48.5-0.8,72.7-1.3c42.3-1,84.7-3,126.9-5.9
	c17.9-1.2,36.4-0.8,53.4-9c6.9-3.3,11.8-7.9,13-15.1c1.4-8.7,3.3-17.4,2.8-26.5c-1.9-40.4,1.8-80.7-6.1-121.3
	c-6-31.2-4-63.9-5.7-95.9c-1-20.1-2.5-40.1-7.1-59.7c-5-21.3-12.4-28.6-34.2-28.7c-48.2-0.2-96.2-4.3-144.3-4.7
	c-27-0.2-54.1-0.2-81-0.7C227.3,14.8,205.6,13.4,183.9,13.3z M493.1,599.8c-43.3,0.3-80.1-1.5-116.8-3.1c-39.5-1.8-79-0.6-118.4-1.6
	c-62-1.5-123.9-3.4-185.9-2.4c-6.2,0.1-12.4-0.3-18.6,0.3c-20.3,1.9-32.2-8.7-27.5-28.2c6.6-27.9,9.6-57.2,26.1-82.3
	c4.8-7.2,6.3-16.6,9.6-24.8c12.5-32.3,24.2-43.9,57.9-39.3c22.4,3,44.7-1.7,67.1-2.9c6.2-0.3,12.2-0.2,18.3-0.1
	c47.4,0.7,94.9,3.1,142.3,1.9c29.3-0.7,58.5,0.8,87.7-0.3c27.4-1,54.8,0.8,82.2,2.2c10.6,0.6,15.8,9.1,18.3,18.5
	c8.7,32.5,17.2,65,25.6,97.5c2.4,9.4,5.4,18.6,9.4,27.4c7.1,15.9,0.1,29.5-17,32.8C531.4,599.8,509,600.4,493.1,599.8z M196.9,582
	c23.9,1.3,58.3-1,92.8,1.6c39.7,3,79.7,0.2,119.6,2.4c39,2.2,78.3,0.4,117.5,0.6c7.9,0,15.4-1.8,22.9-3.3c8.6-1.6,11.6-6.9,8.4-15.4
	c-1.5-4-2.8-8-4-12.1c-9.4-32.3-18.4-64.7-24.8-97.8c-3.8-19.4-8.9-25.6-19.7-25.8c-46.2-0.9-92.5-1.6-138.7-2.5
	c-10.5-0.2-20.6,4-31.2,2.3c-27.6-4.4-55.6-2.9-83.4-4c-51.7-2-103.5,0.4-155.2,3.5c-8.8,0.5-13,4.2-17.8,10.3
	c-10.7,13.9-12.4,31.6-20.7,46.4c-12.3,21.9-17.8,45.9-22.7,70.2c-3.3,16.3,2.3,22.6,18.8,21.1c4.6-0.4,9.3-0.5,13.9-0.1
	C110.6,582.9,148.5,581.3,196.9,582z M465.9,468c-1.2-5.9,3.4-16-5-16.8c-9.2-0.8-5.8,10.1-7,15.6c-1.6,7.8-3.5,13.7-12.6,14.6
	c-5.1,0.5-10-0.6-14.9-0.8c-6-0.3-10.9,2.9-10.5,9.6c0.4,6.7,5.3,6.1,10.3,5.2c6.8-1.1,13.8-0.2,20.7-1.7
	c18.2-3.8,18.9-4.3,18.9-23.5C465.9,469.6,466,468.8,465.9,468z M421.9,523.7c-4.9,0.5-9.9,2.2-9.5,7.9c0.3,5.7,5.9,5,10,5.2
	c7.3,0.3,14.5,0.5,21.8,1.6c16.7,2.6,27-10,22.4-26.7c-1-3.7-0.2-9.9-6.1-9.4c-5.3,0.4-5.6,6-5.4,10.1c0.4,10.9-5.6,13.2-14.7,12
	c-3.4-0.4-6.9-0.7-7.1-0.7C427.3,523.7,424.6,523.5,421.9,523.7z M288.9,510.7c-0.3-3.8,0-8.4-5.2-8.9c-4.6-0.4-5.1,4-6.2,7.1
	c-2.3,6.8-2.7,14.6-11.1,17.6c-6.4,2.2-12.9,2.2-19.4,0.7c-3.5-0.8-6.2,0.1-7.5,3.5c-1.3,3.5,0.9,5.8,3.5,7.7c4.7,3.3,10.2,3,15.6,3
	C278,541.6,290.3,529.1,288.9,510.7z M133.1,517.8c-0.1-4.4,1-10.8-5.2-11.1c-6.5-0.3-5.7,6.1-5.6,10.6c0.3,11.4-5.1,16.3-16.3,15.6
	c-4.6-0.3-9.3,0-13.9,0.1c-3.5,0.1-7.6,0.5-8,4.9c-0.5,4.7,3.2,7,7.1,7.7c4.5,0.8,9.2,0.6,13.8,0.8
	C129,546.2,133.9,541.2,133.1,517.8z M342,453.1c-9.1-0.8-4.8,8.4-5.8,13.2c-1.3,6.7-4.9,10.4-11.6,10.5c-4.2,0.1-8.4-0.6-12.5-1.4
	c-5.5-1-9.5,0.6-10.2,6.3c-0.7,5.8,3.2,8.3,8.5,8.5c7.3,0.2,14.5,0.5,21.7-1.6c10.6-3.2,17-8.9,15-21
	C346.1,462.4,349.6,453.7,342,453.1z M400.7,462.4c-0.5-4.6,1.4-11.8-6-11.4c-6,0.3-4.7,7-4.9,11.4c-0.7,18.2-0.6,18.3-18.8,21.6
	c-4,0.7-8.2,1.5-8.3,6.4c-0.2,5.6,4.4,6.4,8.8,6.9c20.8,2.4,29.2-5.7,29.1-27.9C400.7,467,400.9,464.7,400.7,462.4z M191.2,462.7
	c-0.1-4.1-1.3-8.4-5.8-8.9c-4.9-0.5-5.8,4.4-7,7.9c-5.5,16.7-5.5,16.7-22.1,15.4c-4.6-0.4-9,0.5-10,5.7c-0.9,4.7,2.9,6.9,6.6,8.2
	c2.9,1,6,1.3,6.7,1.5C177.4,492.8,191.7,478.2,191.2,462.7z M197.8,482.7c-0.7,6.2,5.1,6.7,9.6,7.6c21.5,4.6,30.2-1.7,34.1-24.2
	c0.8-4.4,1.8-9.2-3.5-10.6c-5.2-1.4-6.3,3.8-7.1,7.3c-2.6,12.3-8.6,18.8-21.3,14.4C204.3,477.3,198.5,476.5,197.8,482.7z
	 M344.9,502.4c-0.8-4-1.6-8.2-6.5-8c-4.6,0.2-4.5,4.6-4.4,8c0.4,12.9-7.2,17.7-18.6,18.7c-3.1,0.3-6.2,0.1-9.2,0.5
	c-2.8,0.3-5.3,1.5-5.7,4.7c-0.4,3.2,1.9,4.9,4.1,6.4c2.7,1.9,5.8,1.8,8.9,1.8C334.9,534.1,348.4,520.3,344.9,502.4z M397,505.1
	c-3.7-1.5-6.6,1.5-6.7,4.4c-0.6,15.2-9.8,18.1-22.5,16.7c-1.8-0.2-3.8,0.6-5.5,1.4c-3,1.4-5,3.8-4.6,7.3c0.4,3.3,2.6,5.3,6,6.3
	c19.6,5.4,36.6-6.5,37.1-26.3C400.5,511.4,401.5,506.9,397,505.1z M238.8,510.5c-0.6-3.3-1.3-7.5-5.4-8.1c-4.4-0.6-5.4,3.1-6.4,6.7
	c-4.5,15.2-7.2,17.1-23,15.5c-4-0.4-7.2,0-8.5,3.9c-1.5,4.5,1.4,7.6,5.1,9.2c3.1,1.3,6.7,1.4,7.9,1.6
	C226.8,539,241.3,524.2,238.8,510.5z M138.9,477.5c1.7-7.1,2.2-14.5,3.1-21.7c0.3-2.5-0.5-4.7-3.1-5.5c-2.6-0.7-4.8,0.5-5.7,2.7
	c-1.1,2.8-1.8,5.9-2.1,8.9c-1.2,12.4-7,19-20.4,17.6c-5-0.5-11.2,0-10.6,7.2c0.5,6.1,6.3,5.7,10.9,5.9
	C127.7,492.5,136.4,488.1,138.9,477.5z M176.9,506.5c-4.6-0.6-7.6,3.3-7.6,7.1c-0.3,14.4-10.6,16.2-21.1,17.6
	c-3.5,0.5-7.6-0.1-8.1,4.4c-0.5,4.8,3.8,6.2,7.5,7.4c16.3,5.4,34.4-9,34.4-27.9C181.6,511.8,182,507.1,176.9,506.5z M289,461.1
	c-0.3-3.7,0.4-8.7-5.2-8.5c-4.9,0.2-5.9,4.6-5.7,8.6c0.7,12.9-5.6,17.5-17.7,15.9c-1.5-0.2-3.1-0.1-4.6,0.1c-3.8,0.4-7,2.1-7.2,6.2
	c-0.2,4.2,2.9,6.1,6.6,6.6c2.7,0.4,5.4,0.3,5.9,0.4C283.1,490.5,290.5,482,289,461.1z M378.9,110.6c-3.6,0-6.6,3-6.6,6.6
	s3,6.6,6.6,6.6s6.6-3,6.6-6.6S382.5,110.6,378.9,110.6z"/>
</svg>
