<svg xmlns="http://www.w3.org/2000/svg" viewBox="0 0 183.25 200.48"><defs><style>g{fill:#B66B1A;}</style></defs><g id="Layer_2" data-name="Layer 2"><g id="Colomba" data-name="Colomba"><path d="M55.13,0c6.14.56,13.68.43,21.11.53,6.62.09,13.33.23,20,.19,15.4-.1,30.74,1.22,46.11,1.51,5.14.1,10.19-.5,15.15,1.56a12,12,0,0,1,7.73,9c2,9.35,2.51,18.87,3.19,28.38.82,11.31,1.18,22.65,2.73,33.94,1.16,8.46,1.74,17.13.55,25.78-.54,3.94-.18,8-.24,12-.15,9.55-4.18,14.47-13.49,15.89-6.5,1-13.09,1.26-19.65,1.76-15.08,1.15-30.19,1.26-45.27,2.08-13.43.72-26.87-.3-40.28-1.26-6.44-.46-12.91,0-19.37-.79-2.93-.35-5.9-.64-8.81-1.1-4.54-.71-7.74-6-8.4-12.6-1.21-12-.82-24,0-36,.09-1.32.08-2.75,1.63-3.18s2.73.52,3.5,1.83c1.7,2.89,3.46,5.25,7.56,4.66,2.35-.33,3.6,2,4,4.09C34,94.58,38.69,97,44.05,98.72c.86.27,1.82.28,2.4,1.08,11.69,16.07,33.44,17.29,48.44,11.9,8.33-3,13.68-9.76,17.87-17.88,7.48-14.51,6.35-30.62,10-45.81.39-1.64.35-3.57,1.25-4.85,2.75-3.88.46-6.05-2.2-8.42-5.32-4.74-11.35-4.08-15,2-3.78,6.31-6.12,13.43-11,19.14A17.52,17.52,0,0,1,86,62.18C70.12,65.74,58.17,56.87,52.4,45.26,48.48,37.38,43,31.5,34.9,28a28.63,28.63,0,0,0-12-2.54c-3.59.08-4.95-1.76-5.09-4.91C17.31,10.47,22.89,0,36.7,0Zm-2,4.44c-3.37,0-6.74.07-10.1,0s-6.95.51-10.41.72c-7.23.43-12.4,8.81-11.21,15.48.23,1.28.61,1.91,2,1.54C35.13,19,51.29,32.23,55.73,42.08A27.9,27.9,0,0,0,74,57.7c5.4,1.54,11.33,1.86,16.48-2.66C94,52,95.59,48,97.94,44.33c3.07-4.74,4.39-10.55,8.8-14.49,2.72-2.42,5.62-4.29,9.46-2.91,4.14,1.49,8.12,3.27,11.2,6.61,1.31,1.42,2.63,2.84,4.65,3.36,1.21.31,2.68.6,2.7,2.31S133.45,41.66,132,42a5.76,5.76,0,0,0-4.7,4.6c-.74,3.4-1.07,6.88-1.7,10.31-2.26,12.2-2.23,24.73-7.69,36.45-5.33,11.43-12.77,20.35-24.94,23.44-17.86,4.53-34.68,2.46-48.12-12-1.33-1.43-2.73-2.75-4.81-3.08a10.92,10.92,0,0,1-8.74-6.89c-1.64-4-3.4-6.78-8.34-7.28-2.66-.27-3-.07-3.14,2.33a183.12,183.12,0,0,0,.85,28.52c.57,4.75,2,6.09,6.35,6.83,16.89,2.84,34,1.59,51,3.06,8.1.7,16.19-.25,24.28-.45q21.22-.51,42.4-2c6-.42,12.16-.27,17.84-3,2.3-1.11,4-2.63,4.36-5a41.85,41.85,0,0,0,.95-8.84c-.63-13.5.6-27-2-40.52-2-10.41-1.35-21.34-1.9-32a112,112,0,0,0-2.37-20c-1.67-7.13-4.14-9.56-11.43-9.58C134,6.8,118,5.44,101.92,5.3c-9-.08-18.06-.07-27.07-.23C67.63,4.94,60.4,4.49,53.16,4.44Z"/><path d="M156.46,200.42c-14.48.1-26.77-.49-39-1-13.21-.59-26.39-.21-39.58-.53-20.7-.5-41.4-1.13-62.12-.8-2.07,0-4.16-.11-6.22.09-6.77.64-10.74-2.89-9.2-9.43,2.21-9.34,3.2-19.11,8.74-27.48,1.6-2.41,2.12-5.53,3.19-8.3,4.18-10.78,8.09-14.67,19.36-13.14,7.47,1,15-.57,22.42-1,2.06-.11,4.09-.05,6.12,0,15.85.22,31.72,1,47.55.63,9.78-.24,19.54.27,29.32-.09,9.14-.34,18.33.26,27.48.75,3.53.19,5.27,3,6.11,6.19q4.36,16.27,8.57,32.58a59.32,59.32,0,0,0,3.13,9.17c2.36,5.31,0,9.87-5.67,11A92.1,92.1,0,0,1,156.46,200.42Zm-99-5.95c8,.44,19.48-.34,31,.52,13.27,1,26.62.05,40,.81,13,.74,26.17.12,39.25.19a39.38,39.38,0,0,0,7.66-1.1c2.86-.55,3.89-2.31,2.81-5.15-.5-1.32-.93-2.68-1.33-4-3.14-10.79-6.15-21.62-8.3-32.67-1.26-6.49-3-8.54-6.58-8.61-15.45-.29-30.9-.53-46.34-.83-3.5-.07-6.88,1.33-10.41.77-9.23-1.46-18.58-1-27.86-1.34-17.28-.66-34.58.13-51.85,1.18-2.94.18-4.36,1.41-5.93,3.44-3.59,4.63-4.14,10.56-6.91,15.52-4.09,7.32-6,15.34-7.6,23.45-1.1,5.45.77,7.55,6.29,7.05a26.21,26.21,0,0,1,4.66,0C28.65,194.78,41.31,194.24,57.48,194.47Z"/><path d="M147.38,157.16c0,6.41-.24,6.57-6.33,7.84-2.32.48-4.65.18-6.93.56-1.69.28-3.33.48-3.45-1.74s1.48-3.31,3.5-3.21a33.51,33.51,0,0,0,5,.27c3-.29,3.67-2.25,4.22-4.87.39-1.85-.76-5.5,2.33-5.23,2.82.25,1.25,3.62,1.66,5.61A3.86,3.86,0,0,1,147.38,157.16Z"/><path d="M136.48,175c.06,0,1.22.09,2.36.24,3.06.39,5.06-.38,4.92-4-.06-1.38,0-3.24,1.81-3.38,2-.16,1.71,1.91,2,3.15,1.52,5.58-1.9,9.79-7.5,8.93a64,64,0,0,0-7.29-.54c-1.37-.05-3.23.16-3.34-1.74s1.54-2.48,3.19-2.63C133.58,174.92,134.48,175,136.48,175Z"/><path d="M78.13,180.93c-1.8,0-3.63.12-5.21-1-.89-.62-1.62-1.39-1.18-2.57a1.91,1.91,0,0,1,2.51-1.17,11.59,11.59,0,0,0,6.47-.25c2.82-1,3-3.61,3.72-5.88.35-1,.54-2.52,2.07-2.39,1.73.15,1.64,1.7,1.74,3C88.7,176.79,84.59,181,78.13,180.93Z"/><path d="M26.83,182.58a37.69,37.69,0,0,1-4.62-.27c-1.31-.23-2.55-1-2.39-2.56s1.51-1.58,2.68-1.62c1.55-.06,3.1-.14,4.64,0,3.74.22,5.55-1.42,5.43-5.23,0-1.47-.33-3.62,1.85-3.53s1.69,2.22,1.74,3.7C36.44,180.85,34.8,182.49,26.83,182.58Z"/><path d="M107.71,156.22c.66,4.06-1.48,6-5,7a22.16,22.16,0,0,1-7.27.54c-1.77-.06-3.09-.9-2.84-2.84s1.58-2.44,3.41-2.09a21.14,21.14,0,0,0,4.18.46c2.24,0,3.43-1.27,3.87-3.52.32-1.62-1.11-4.68,1.94-4.42C108.52,151.6,107.36,154.51,107.71,156.22Z"/><path d="M125.6,156.82c0,7.44-2.8,10.13-9.74,9.33-1.5-.17-3-.42-3-2.31,0-1.62,1.43-1.89,2.77-2.14,6.08-1.11,6.06-1.13,6.28-7.22.05-1.48-.39-3.69,1.63-3.81,2.48-.14,1.83,2.26,2,3.81A21.22,21.22,0,0,1,125.6,156.82Z"/><path d="M45.05,164.61a12.79,12.79,0,0,1-2.25-.5c-1.25-.45-2.51-1.18-2.2-2.75.34-1.74,1.79-2,3.33-1.89,5.56.43,5.55.43,7.39-5.15.39-1.19.7-2.81,2.32-2.65s1.89,1.59,1.94,3C55.76,159.78,51,164.68,45.05,164.61Z"/><path d="M61.72,159.43c4.24,1.45,6.26-.71,7.13-4.82.25-1.18.63-2.9,2.36-2.44s1.43,2.08,1.18,3.55c-1.31,7.54-4.19,9.61-11.38,8.09-1.51-.32-3.44-.47-3.2-2.54S60,159.48,61.72,159.43Z"/><path d="M96.44,178.6a4.87,4.87,0,0,1-3-.59c-.75-.52-1.51-1.08-1.38-2.14s1-1.46,1.92-1.57,2.06-.08,3.08-.17c3.81-.35,6.36-1.94,6.22-6.25,0-1.15-.07-2.61,1.47-2.69s1.91,1.33,2.17,2.67C108.12,173.84,103.62,178.46,96.44,178.6Z"/><path d="M125.59,172c-.16,6.62-5.83,10.58-12.38,8.79a2.44,2.44,0,0,1-2-2.09,2.27,2.27,0,0,1,1.53-2.42,3.88,3.88,0,0,1,1.85-.47c4.26.46,7.31-.5,7.52-5.58a1.62,1.62,0,0,1,2.24-1.47C125.86,169.37,125.51,170.88,125.59,172Z"/><path d="M61.34,180.19a9.62,9.62,0,0,1-2.64-.53c-1.22-.53-2.2-1.59-1.7-3.08.43-1.3,1.52-1.43,2.85-1.3,5.28.55,6.19-.09,7.69-5.17.35-1.19.68-2.42,2.15-2.23s1.61,1.58,1.81,2.7C72.33,175.17,67.47,180.11,61.34,180.19Z"/><path d="M28.75,164.62c-1.55-.07-3.48.07-3.66-2-.21-2.42,1.87-2.6,3.53-2.41,4.48.49,6.42-1.72,6.83-5.88a10.84,10.84,0,0,1,.71-3,1.54,1.54,0,0,1,1.92-.9,1.51,1.51,0,0,1,1.05,1.83,69.74,69.74,0,0,1-1,7.26C37.26,163.1,34.35,164.57,28.75,164.62Z"/><path d="M52.48,172.11c0,6.31-6,11.11-11.5,9.31-1.21-.4-2.68-.87-2.5-2.48s1.55-1.3,2.72-1.46c3.53-.46,7-1.06,7.06-5.87a2.31,2.31,0,0,1,2.55-2.37C52.5,169.46,52.39,171,52.48,172.11Z"/><path d="M79,163.85a16.52,16.52,0,0,1-2-.12c-1.26-.18-2.29-.82-2.21-2.21s1.13-1.93,2.4-2.07a6.57,6.57,0,0,1,1.54,0c4,.53,6.17-1,5.93-5.31-.08-1.33.25-2.81,1.89-2.87,1.87-.06,1.64,1.59,1.73,2.83C88.78,161.06,86.29,163.89,79,163.85Z"/><circle class="cls-1" cx="118.29" cy="39.17" r="2.2"/></g></g></svg>