<?xml version="1.0" encoding="utf-8"?>
<!-- Generator: Adobe Illustrator 20.1.0, SVG Export Plug-In . SVG Version: 6.00 Build 0)  -->
<svg version="1.1" xmlns="http://www.w3.org/2000/svg" xmlns:xlink="http://www.w3.org/1999/xlink" x="0px" y="0px"
	 viewBox="0 0 1110 300" style="enable-background:new 0 0 1110 300;" xml:space="preserve">
<style type="text/css">
	.st0{display:none;}
	.st1{clip-path:url(#SVGID_2_);fill:url(#SVGID_3_);}
	.st2{display:inline;}
	.st3{font-family:'Mistral';}
	.st4{font-size:197px;}
	.st5{clip-path:url(#SVGID_5_);fill:url(#SVGID_6_);}
</style>
<g id="Colomba">
	<path d="M86.5,7.3c8.7,0.8,19.5,0.6,30,0.8c9.4,0.1,19,0.3,28.5,0.3c21.9-0.1,43.7,1.7,65.6,2.1c7.3,0.1,14.5-0.7,21.6,2.2
		c6,2.5,9.7,6.6,11,12.8c2.8,13.3,3.6,26.8,4.5,40.4c1.2,16.1,1.7,32.2,3.9,48.3c1.7,12,2.5,24.4,0.8,36.7
		c-0.8,5.6-0.3,11.4-0.3,17.1c-0.2,13.6-5.9,20.6-19.2,22.6c-9.3,1.4-18.6,1.8-28,2.5c-21.5,1.6-43,1.8-64.4,3
		c-19.1,1-38.2-0.4-57.3-1.8c-9.2-0.7-18.4,0-27.6-1.1c-4.2-0.5-8.4-0.9-12.5-1.6c-6.5-1-11-8.6-12-17.9c-1.7-17.1-1.2-34.2,0-51.2
		c0.1-1.9,0.1-3.9,2.3-4.5c2.3-0.6,3.9,0.7,5,2.6c2.4,4.1,4.9,7.5,10.8,6.6c3.4-0.5,5.1,2.8,5.7,5.8c1.6,9,8.3,12.5,15.9,14.9
		c1.2,0.4,2.6,0.4,3.4,1.5c16.6,22.9,47.6,24.6,68.9,16.9c11.8-4.3,19.5-13.9,25.4-25.4c10.6-20.7,9-43.6,14.2-65.2
		c0.6-2.3,0.5-5.1,1.8-6.9c3.9-5.5,0.7-8.6-3.1-12c-7.6-6.7-16.2-5.8-21.3,2.8c-5.4,9-8.7,19.1-15.6,27.2c-3.8,4.4-8,7.7-14,9
		c-22.6,5.1-39.6-7.6-47.8-24.1c-5.6-11.2-13.4-19.6-24.9-24.6c-5.5-2.4-11.2-3.7-17.1-3.6c-5.1,0.1-7-2.5-7.2-7
		c-0.7-14.4,7.3-29.3,27-29.3C68.4,7.3,76.5,7.3,86.5,7.3z M83.7,13.6c-4.8,0-9.6,0.1-14.4,0c-5-0.1-9.9,0.7-14.8,1
		c-10.3,0.6-17.6,12.5-16,22c0.3,1.8,0.9,2.7,2.8,2.2c16.7-4.5,39.7,14.3,46,28.3c5.1,11.4,14.4,18.9,26.1,22.2
		c7.7,2.2,16.1,2.6,23.5-3.8c5-4.4,7.2-10.1,10.6-15.2c4.4-6.8,6.2-15,12.5-20.6c3.9-3.5,8-6.1,13.5-4.1c5.9,2.1,11.6,4.7,15.9,9.4
		c1.9,2,3.7,4,6.6,4.8c1.7,0.4,3.8,0.9,3.8,3.3c0,2.6-1.9,3.5-3.9,3.9c-3.7,0.8-5.9,3.1-6.7,6.5c-1.1,4.8-1.5,9.8-2.4,14.7
		c-3.2,17.4-3.2,35.2-10.9,51.9c-7.6,16.3-18.2,29-35.5,33.4c-25.4,6.4-49.4,3.5-68.5-17c-1.9-2-3.9-3.9-6.8-4.4
		c-6-0.9-10.2-4.5-12.4-9.8c-2.3-5.6-4.8-9.6-11.9-10.4c-3.8-0.4-4.3-0.1-4.5,3.3c-0.5,13.6-0.4,27.1,1.2,40.6
		c0.8,6.8,2.8,8.7,9,9.7c24,4,48.4,2.3,72.6,4.4c11.5,1,23-0.4,34.6-0.6c20.1-0.5,40.3-1.4,60.3-2.8c8.5-0.6,17.3-0.4,25.4-4.3
		c3.3-1.6,5.6-3.7,6.2-7.2c0.7-4.1,1.6-8.3,1.4-12.6c-0.9-19.2,0.9-38.4-2.9-57.7c-2.9-14.8-1.9-30.4-2.7-45.6
		c-0.5-9.5-1.2-19.1-3.4-28.4c-2.4-10.2-5.9-13.6-16.3-13.6c-22.9-0.1-45.7-2-68.6-2.2c-12.8-0.1-25.7-0.1-38.5-0.3
		C104.3,14.3,94,13.7,83.7,13.6z M230.7,292.5c-20.6,0.1-38.1-0.7-55.5-1.5c-18.8-0.8-37.6-0.3-56.3-0.8
		c-29.5-0.7-58.9-1.6-88.4-1.1c-2.9,0-5.9-0.2-8.8,0.1c-9.6,0.9-15.3-4.1-13.1-13.4c3.1-13.3,4.6-27.2,12.4-39.1
		c2.3-3.4,3-7.9,4.5-11.8c6-15.3,11.5-20.9,27.6-18.7c10.6,1.4,21.3-0.8,31.9-1.4c2.9-0.2,5.8-0.1,8.7,0c22.6,0.3,45.1,1.5,67.7,0.9
		c13.9-0.3,27.8,0.4,41.7-0.1c13-0.5,26.1,0.4,39.1,1.1c5,0.3,7.5,4.3,8.7,8.8c4.1,15.4,8.2,30.9,12.2,46.4c1.2,4.5,2.6,8.8,4.5,13
		c3.4,7.6,0.1,14-8.1,15.6C249,292.5,238.3,292.8,230.7,292.5z M89.9,284c11.4,0.6,27.7-0.5,44.1,0.7c18.9,1.4,37.9,0.1,56.9,1.2
		c18.6,1.1,37.2,0.2,55.9,0.3c3.8,0,7.3-0.9,10.9-1.6c4.1-0.8,5.5-3.3,4-7.3c-0.7-1.9-1.3-3.8-1.9-5.8c-4.5-15.4-8.7-30.8-11.8-46.5
		c-1.8-9.2-4.2-12.1-9.4-12.2c-22-0.4-44-0.8-66-1.2c-5-0.1-9.8,1.9-14.8,1.1c-13.1-2.1-26.4-1.4-39.7-1.9
		c-24.6-0.9-49.2,0.2-73.8,1.7c-4.2,0.3-6.2,2-8.4,4.9c-5.1,6.6-5.9,15-9.8,22.1c-5.8,10.4-8.5,21.8-10.8,33.4
		c-1.6,7.8,1.1,10.7,8.9,10c2.2-0.2,4.4-0.2,6.6,0C48.8,284.5,66.9,283.7,89.9,284z M217.8,229.8c-0.6-2.8,1.6-7.6-2.4-8
		c-4.4-0.4-2.8,4.8-3.3,7.4c-0.8,3.7-1.7,6.5-6,6.9c-2.4,0.2-4.7-0.3-7.1-0.4c-2.9-0.1-5.2,1.4-5,4.6c0.2,3.2,2.5,2.9,4.9,2.5
		c3.2-0.5,6.6-0.1,9.9-0.8c8.7-1.8,9-2,9-11.2C217.8,230.6,217.9,230.2,217.8,229.8z M196.9,256.3c-2.3,0.2-4.7,1.1-4.5,3.7
		c0.2,2.7,2.8,2.4,4.7,2.5c3.5,0.1,6.9,0.2,10.4,0.8c8,1.2,12.8-4.8,10.7-12.7c-0.5-1.8-0.1-4.7-2.9-4.5c-2.5,0.2-2.6,2.9-2.6,4.8
		c0.2,5.2-2.6,6.3-7,5.7c-1.6-0.2-3.3-0.3-3.4-0.3C199.5,256.3,198.2,256.2,196.9,256.3z M133.6,250.1c-0.1-1.8,0-4-2.5-4.2
		c-2.2-0.2-2.4,1.9-2.9,3.4c-1.1,3.2-1.3,7-5.3,8.4c-3.1,1.1-6.1,1-9.2,0.3c-1.7-0.4-3,0-3.6,1.7c-0.6,1.7,0.4,2.8,1.7,3.7
		c2.3,1.6,4.9,1.4,7.4,1.4C128.5,264.8,134.3,258.9,133.6,250.1z M59.5,253.5c-0.1-2.1,0.5-5.1-2.5-5.3c-3.1-0.1-2.7,2.9-2.6,5
		c0.2,5.4-2.4,7.7-7.7,7.4c-2.2-0.1-4.4,0-6.6,0.1c-1.7,0.1-3.6,0.2-3.8,2.3c-0.2,2.2,1.5,3.3,3.4,3.6c2.1,0.4,4.4,0.3,6.6,0.4
		C57.6,267,59.9,264.6,59.5,253.5z M158.9,222.7c-4.3-0.4-2.3,4-2.8,6.3c-0.6,3.2-2.3,5-5.5,5c-2,0-4-0.3-6-0.7
		c-2.6-0.5-4.5,0.3-4.9,3c-0.4,2.8,1.5,4,4,4c3.5,0.1,6.9,0.3,10.3-0.8c5-1.5,8.1-4.2,7.1-10C160.9,227.2,162.5,223,158.9,222.7z
		 M186.8,227.1c-0.2-2.2,0.7-5.6-2.8-5.4c-2.9,0.2-2.2,3.3-2.3,5.4c-0.3,8.7-0.3,8.7-8.9,10.3c-1.9,0.3-3.9,0.7-3.9,3
		c-0.1,2.7,2.1,3,4.2,3.3c9.9,1.1,13.9-2.7,13.9-13.3C186.8,229.3,186.9,228.2,186.8,227.1z M87.2,227.3c-0.1-2-0.6-4-2.8-4.2
		c-2.3-0.2-2.7,2.1-3.3,3.8c-2.6,7.9-2.6,8-10.5,7.3c-2.2-0.2-4.3,0.2-4.7,2.7c-0.4,2.2,1.4,3.3,3.1,3.9c1.4,0.5,2.8,0.6,3.2,0.7
		C80.6,241.6,87.4,234.7,87.2,227.3z M90.3,236.8c-0.3,2.9,2.4,3.2,4.6,3.6c10.2,2.2,14.3-0.8,16.2-11.5c0.4-2.1,0.8-4.4-1.7-5.1
		c-2.5-0.7-3,1.8-3.4,3.5c-1.2,5.8-4.1,8.9-10.1,6.9C93.4,234.2,90.7,233.9,90.3,236.8z M160.3,246.2c-0.4-1.9-0.8-3.9-3.1-3.8
		c-2.2,0.1-2.2,2.2-2.1,3.8c0.2,6.1-3.4,8.4-8.9,8.9c-1.5,0.1-2.9,0.1-4.4,0.2c-1.3,0.2-2.5,0.7-2.7,2.2c-0.2,1.5,0.9,2.3,2,3
		c1.3,0.9,2.8,0.9,4.2,0.8C155.5,261.2,161.9,254.7,160.3,246.2z M185,247.4c-1.8-0.7-3.1,0.7-3.2,2.1c-0.3,7.2-4.6,8.6-10.7,7.9
		c-0.8-0.1-1.8,0.3-2.6,0.7c-1.4,0.6-2.4,1.8-2.2,3.5c0.2,1.6,1.2,2.5,2.8,3c9.3,2.6,17.4-3.1,17.6-12.5
		C186.7,250.5,187.2,248.3,185,247.4z M109.8,250c-0.3-1.6-0.6-3.6-2.6-3.8c-2.1-0.3-2.6,1.5-3.1,3.2c-2.1,7.2-3.4,8.1-10.9,7.4
		c-1.9-0.2-3.4,0-4.1,1.8c-0.7,2.1,0.7,3.6,2.4,4.4c1.5,0.6,3.2,0.7,3.8,0.8C104.1,263.6,111,256.6,109.8,250z M62.3,234.3
		c0.8-3.4,1.1-6.9,1.5-10.3c0.1-1.2-0.2-2.2-1.5-2.6c-1.2-0.3-2.3,0.2-2.7,1.3c-0.5,1.3-0.9,2.8-1,4.2c-0.6,5.9-3.3,9.1-9.7,8.4
		c-2.4-0.3-5.3,0-5,3.4c0.3,2.9,3,2.7,5.2,2.8C57,241.5,61.1,239.4,62.3,234.3z M80.4,248.1c-2.2-0.3-3.6,1.6-3.6,3.4
		c-0.1,6.8-5,7.7-10.1,8.3c-1.7,0.2-3.6-0.1-3.9,2.1c-0.3,2.3,1.8,3,3.6,3.5c7.8,2.6,16.4-4.3,16.4-13.2
		C82.6,250.6,82.8,248.4,80.4,248.1z M133.7,226.6c-0.1-1.8,0.2-4.1-2.5-4c-2.3,0.1-2.8,2.2-2.7,4.1c0.3,6.1-2.7,8.3-8.4,7.6
		c-0.7-0.1-1.5,0-2.2,0c-1.8,0.2-3.3,1-3.4,2.9c-0.1,2,1.4,2.9,3.2,3.1c1.3,0.2,2.6,0.2,2.8,0.2
		C130.9,240.5,134.4,236.5,133.7,226.6z M176.4,59.9c-1.7,0-3.1,1.4-3.1,3.1c0,1.7,1.4,3.1,3.1,3.1s3.1-1.4,3.1-3.1
		C179.5,61.3,178.1,59.9,176.4,59.9z"/>
</g>
<g id="Canva" class="st0">
	<text transform="matrix(1 0 0 1 13.5799 430.1446)" class="st2" style="font-family:'Tahoma-Bold'; font-size:42px;">PeaceLink</text>
</g>
<g id="PeaceLink">
	<g>
		<path d="M358.8,288c-4.6,0-7.9-0.9-10-2.8c-2.1-1.9-3.1-4.9-3.1-9.2v-16.8h-4.3v-7.8h4.3v-10.3h11.2v10.3h10.8v7.8h-10.8v12.7
			c0,1.3,0,2.4,0,3.3c0,0.9,0.2,1.8,0.5,2.5c0.3,0.7,0.8,1.3,1.6,1.8c0.8,0.4,1.9,0.7,3.3,0.7c0.6,0,1.4-0.1,2.3-0.4
			c1-0.3,1.6-0.5,2-0.7h1v7.9c-1.2,0.3-2.5,0.6-3.9,0.8C362.4,287.9,360.8,288,358.8,288z"/>
		<path d="M392,288.2c-6.8,0-12-1.6-15.6-4.9c-3.6-3.2-5.4-7.9-5.4-13.8c0-5.9,1.7-10.5,5.1-14c3.4-3.5,8.1-5.2,14.1-5.2
			c5.5,0,9.6,1.5,12.4,4.4c2.8,3,4.2,7.2,4.2,12.7v4h-24.5c0.1,1.7,0.5,3.1,1.1,4.2c0.6,1.1,1.4,2,2.4,2.7c1,0.7,2.1,1.1,3.4,1.4
			s2.7,0.4,4.2,0.4c1.3,0,2.6-0.1,3.8-0.4c1.3-0.3,2.4-0.7,3.5-1.1c0.9-0.4,1.8-0.8,2.5-1.3c0.8-0.5,1.4-0.9,1.9-1.2h1.2v9.2
			c-0.9,0.4-1.8,0.7-2.5,1c-0.8,0.3-1.8,0.6-3.1,0.9c-1.2,0.3-2.5,0.6-3.8,0.8C395.4,288.1,393.9,288.2,392,288.2z M395.7,264.7
			c-0.1-2.4-0.6-4.2-1.6-5.4c-1-1.2-2.6-1.9-4.7-1.9c-2.2,0-3.9,0.7-5.1,2c-1.2,1.3-1.9,3.1-2,5.3H395.7z"/>
		<path d="M425.1,287.3h-11.2v-49.7h11.2V287.3z"/>
		<path d="M453.4,288.2c-6.8,0-12-1.6-15.6-4.9c-3.6-3.2-5.4-7.9-5.4-13.8c0-5.9,1.7-10.5,5.1-14c3.4-3.5,8.1-5.2,14.1-5.2
			c5.5,0,9.6,1.5,12.4,4.4c2.8,3,4.2,7.2,4.2,12.7v4h-24.5c0.1,1.7,0.5,3.1,1.1,4.2c0.6,1.1,1.4,2,2.4,2.7c1,0.7,2.1,1.1,3.4,1.4
			s2.7,0.4,4.2,0.4c1.3,0,2.6-0.1,3.8-0.4c1.3-0.3,2.4-0.7,3.5-1.1c0.9-0.4,1.8-0.8,2.5-1.3c0.8-0.5,1.4-0.9,1.9-1.2h1.2v9.2
			c-0.9,0.4-1.8,0.7-2.5,1c-0.8,0.3-1.8,0.6-3.1,0.9c-1.2,0.3-2.5,0.6-3.8,0.8C456.8,288.1,455.2,288.2,453.4,288.2z M457.1,264.7
			c-0.1-2.4-0.6-4.2-1.6-5.4c-1-1.2-2.6-1.9-4.7-1.9c-2.2,0-3.9,0.7-5.1,2c-1.2,1.3-1.9,3.1-2,5.3H457.1z"/>
		<path d="M518.1,287.3v-17.9c0-1.8,0-3.3-0.1-4.5c-0.1-1.2-0.3-2.2-0.6-3c-0.3-0.8-0.8-1.3-1.5-1.7c-0.7-0.4-1.6-0.5-2.8-0.5
			c-0.9,0-1.7,0.2-2.5,0.6c-0.8,0.4-1.7,0.9-2.7,1.6v25.4h-11.3v-17.9c0-1.7,0-3.2-0.1-4.5c-0.1-1.2-0.3-2.2-0.6-3
			c-0.3-0.8-0.8-1.3-1.5-1.7c-0.7-0.4-1.6-0.5-2.8-0.5c-0.9,0-1.8,0.2-2.7,0.6c-0.9,0.4-1.7,0.9-2.6,1.5v25.4h-11.2v-35.9h11.2v4
			c1.8-1.6,3.6-2.8,5.2-3.6c1.6-0.9,3.4-1.3,5.5-1.3c2.2,0,4.1,0.5,5.8,1.6c1.7,1,2.9,2.6,3.8,4.7c2.2-2,4.2-3.5,6.1-4.6
			c1.9-1.1,3.8-1.6,5.8-1.6c1.7,0,3.2,0.3,4.5,0.8c1.3,0.5,2.4,1.3,3.4,2.4c1,1.2,1.8,2.5,2.3,4.1c0.5,1.6,0.8,3.7,0.8,6.2v23.4
			H518.1z"/>
		<path d="M558.8,283.4c-0.8,0.6-1.5,1.2-2.1,1.7s-1.4,1-2.4,1.5c-1,0.5-2,0.9-2.9,1.1c-0.9,0.3-2.3,0.4-4,0.4
			c-3.2,0-5.8-1.1-7.9-3.2c-2.1-2.1-3.1-4.8-3.1-8.1c0-2.7,0.5-4.8,1.6-6.5c1.1-1.6,2.6-2.9,4.6-3.9c2-1,4.4-1.7,7.3-2
			c2.8-0.4,5.8-0.7,9.1-0.9v-0.2c0-2-0.7-3.4-2.2-4.1c-1.5-0.8-3.6-1.1-6.6-1.1c-1.3,0-2.9,0.2-4.6,0.7c-1.8,0.5-3.5,1.1-5.2,1.8h-1
			v-8.7c1.1-0.3,2.9-0.7,5.4-1.1c2.5-0.4,5-0.7,7.5-0.7c6.2,0,10.7,1,13.5,3.1c2.8,2.1,4.2,5.2,4.2,9.4v24.4h-11.1V283.4z
			 M558.8,277.9v-7.5c-1.9,0.2-3.4,0.4-4.6,0.5c-1.2,0.1-2.3,0.4-3.5,0.8c-1,0.3-1.7,0.9-2.3,1.6c-0.5,0.7-0.8,1.6-0.8,2.8
			c0,1.7,0.5,2.8,1.4,3.5c0.9,0.6,2.2,0.9,4,0.9c1,0,2-0.2,3-0.7C557.1,279.3,558,278.7,558.8,277.9z"/>
		<path d="M593.3,288c-4.6,0-7.9-0.9-10-2.8c-2.1-1.9-3.1-4.9-3.1-9.2v-16.8H576v-7.8h4.3v-10.3h11.2v10.3h10.8v7.8h-10.8v12.7
			c0,1.3,0,2.4,0,3.3c0,0.9,0.2,1.8,0.5,2.5c0.3,0.7,0.8,1.3,1.6,1.8c0.8,0.4,1.9,0.7,3.3,0.7c0.6,0,1.4-0.1,2.3-0.4
			c1-0.3,1.6-0.5,2-0.7h1v7.9c-1.2,0.3-2.5,0.6-3.9,0.8C597,287.9,595.3,288,593.3,288z"/>
		<path d="M619.7,246.2h-11.8v-8.7h11.8V246.2z M619.4,287.3h-11.2v-35.9h11.2V287.3z"/>
		<path d="M646.9,288.2c-3,0-5.7-0.4-8.1-1.1c-2.5-0.7-4.6-1.9-6.4-3.5c-1.8-1.6-3.2-3.5-4.2-5.9c-1-2.4-1.5-5.1-1.5-8.3
			c0-3.4,0.5-6.3,1.6-8.8c1.1-2.4,2.6-4.4,4.4-5.9c1.8-1.5,3.9-2.6,6.3-3.3c2.4-0.7,4.9-1.1,7.6-1.1c2,0,4,0.2,5.9,0.7
			c2,0.5,4,1.2,6,2.2v9.6h-1.4c-0.4-0.4-1-0.9-1.6-1.4c-0.6-0.5-1.4-1-2.1-1.4c-0.8-0.4-1.7-0.8-2.7-1.1c-1-0.3-2.2-0.5-3.4-0.5
			c-2.9,0-5.1,1-6.6,3c-1.6,2-2.4,4.7-2.4,8c0,3.6,0.8,6.3,2.5,8.1c1.7,1.8,3.9,2.7,6.7,2.7c1.4,0,2.6-0.2,3.7-0.5
			c1.1-0.3,2-0.7,2.7-1.2c0.7-0.4,1.4-0.9,1.9-1.4c0.5-0.5,1-0.9,1.4-1.3h1.4v9.6c-0.6,0.3-1.4,0.6-2.2,1c-0.8,0.4-1.7,0.7-2.6,0.9
			c-1.1,0.3-2.1,0.5-3.1,0.7C649.7,288.1,648.5,288.2,646.9,288.2z"/>
		<path d="M685,283.4c-0.8,0.6-1.5,1.2-2.1,1.7s-1.4,1-2.4,1.5c-1,0.5-2,0.9-2.9,1.1c-0.9,0.3-2.3,0.4-4,0.4c-3.2,0-5.8-1.1-7.9-3.2
			c-2.1-2.1-3.1-4.8-3.1-8.1c0-2.7,0.5-4.8,1.6-6.5c1.1-1.6,2.6-2.9,4.6-3.9c2-1,4.4-1.7,7.3-2c2.8-0.4,5.8-0.7,9.1-0.9v-0.2
			c0-2-0.7-3.4-2.2-4.1c-1.5-0.8-3.6-1.1-6.6-1.1c-1.3,0-2.9,0.2-4.6,0.7c-1.8,0.5-3.5,1.1-5.2,1.8h-1v-8.7c1.1-0.3,2.9-0.7,5.4-1.1
			c2.5-0.4,5-0.7,7.5-0.7c6.2,0,10.7,1,13.5,3.1c2.8,2.1,4.2,5.2,4.2,9.4v24.4H685V283.4z M685,277.9v-7.5c-1.9,0.2-3.4,0.4-4.6,0.5
			c-1.2,0.1-2.3,0.4-3.5,0.8c-1,0.3-1.7,0.9-2.3,1.6c-0.5,0.7-0.8,1.6-0.8,2.8c0,1.7,0.5,2.8,1.4,3.5c0.9,0.6,2.2,0.9,4,0.9
			c1,0,2-0.2,3-0.7C683.2,279.3,684.2,278.7,685,277.9z"/>
		<path d="M761.5,268.8c0,5.7-1.5,10.4-4.4,13.9c-2.9,3.5-6.5,5.3-10.8,5.3c-1.8,0-3.3-0.2-4.7-0.6c-1.3-0.4-2.7-1-4.2-1.9v15h-11.2
			v-49.1h11.2v3.7c1.6-1.4,3.3-2.5,5-3.4c1.7-0.9,3.7-1.3,5.9-1.3c4.2,0,7.4,1.7,9.7,5C760.4,258.6,761.5,263.1,761.5,268.8z
			 M750.1,269c0-3.5-0.5-6-1.6-7.6c-1.1-1.6-2.8-2.4-5-2.4c-1,0-2,0.2-3,0.5c-1,0.3-2,0.8-2.9,1.4V279c0.6,0.3,1.3,0.4,2,0.5
			c0.7,0.1,1.6,0.2,2.5,0.2c2.7,0,4.8-0.9,6.1-2.7C749.4,275.3,750.1,272.6,750.1,269z"/>
		<path d="M787.3,288.2c-6.8,0-12-1.6-15.6-4.9c-3.6-3.2-5.4-7.9-5.4-13.8c0-5.9,1.7-10.5,5.1-14c3.4-3.5,8.1-5.2,14.1-5.2
			c5.5,0,9.6,1.5,12.4,4.4c2.8,3,4.2,7.2,4.2,12.7v4h-24.5c0.1,1.7,0.5,3.1,1.1,4.2c0.6,1.1,1.4,2,2.4,2.7c1,0.7,2.1,1.1,3.4,1.4
			c1.3,0.3,2.7,0.4,4.2,0.4c1.3,0,2.6-0.1,3.8-0.4c1.3-0.3,2.4-0.7,3.5-1.1c0.9-0.4,1.8-0.8,2.5-1.3c0.8-0.5,1.4-0.9,1.9-1.2h1.2
			v9.2c-0.9,0.4-1.8,0.7-2.5,1c-0.8,0.3-1.8,0.6-3.1,0.9c-1.2,0.3-2.5,0.6-3.8,0.8C790.7,288.1,789.1,288.2,787.3,288.2z M791,264.7
			c-0.1-2.4-0.6-4.2-1.6-5.4c-1-1.2-2.6-1.9-4.7-1.9c-2.2,0-3.9,0.7-5.1,2c-1.2,1.3-1.9,3.1-2,5.3H791z"/>
		<path d="M833.2,261.9h-0.9c-0.4-0.1-1-0.3-1.9-0.3c-0.8-0.1-1.7-0.1-2.7-0.1c-1.2,0-2.4,0.2-3.7,0.5c-1.3,0.3-2.5,0.7-3.8,1.2v24
			h-11.2v-35.9h11.2v5.1c0.5-0.5,1.2-1.1,2.1-1.8c0.9-0.7,1.7-1.3,2.5-1.7c0.8-0.5,1.8-0.9,2.8-1.3c1.1-0.4,2.1-0.5,3.1-0.5
			c0.4,0,0.8,0,1.2,0c0.4,0,0.9,0.1,1.2,0.1V261.9z"/>
		<path d="M870.6,287.3h-11.2v-49.7h11.2V287.3z"/>
		<path d="M900.4,283.4c-0.8,0.6-1.5,1.2-2.1,1.7s-1.4,1-2.4,1.5c-1,0.5-2,0.9-2.9,1.1c-0.9,0.3-2.3,0.4-4,0.4
			c-3.2,0-5.8-1.1-7.9-3.2c-2.1-2.1-3.1-4.8-3.1-8.1c0-2.7,0.5-4.8,1.6-6.5c1.1-1.6,2.6-2.9,4.6-3.9c2-1,4.4-1.7,7.3-2
			c2.8-0.4,5.8-0.7,9.1-0.9v-0.2c0-2-0.7-3.4-2.2-4.1c-1.5-0.8-3.6-1.1-6.6-1.1c-1.3,0-2.9,0.2-4.6,0.7c-1.8,0.5-3.5,1.1-5.2,1.8h-1
			v-8.7c1.1-0.3,2.9-0.7,5.4-1.1c2.5-0.4,5-0.7,7.5-0.7c6.2,0,10.7,1,13.5,3.1c2.8,2.1,4.2,5.2,4.2,9.4v24.4h-11.1V283.4z
			 M900.4,277.9v-7.5c-1.9,0.2-3.4,0.4-4.6,0.5c-1.2,0.1-2.3,0.4-3.5,0.8c-1,0.3-1.7,0.9-2.3,1.6c-0.5,0.7-0.8,1.6-0.8,2.8
			c0,1.7,0.5,2.8,1.4,3.5c0.9,0.6,2.2,0.9,4,0.9c1,0,2-0.2,3-0.7C898.6,279.3,899.5,278.7,900.4,277.9z"/>
		<path d="M976.9,268.8c0,5.7-1.5,10.4-4.4,13.9c-2.9,3.5-6.5,5.3-10.8,5.3c-1.8,0-3.3-0.2-4.7-0.6c-1.3-0.4-2.7-1-4.2-1.9v15h-11.2
			v-49.1h11.2v3.7c1.6-1.4,3.3-2.5,5-3.4c1.7-0.9,3.7-1.3,5.9-1.3c4.2,0,7.4,1.7,9.7,5C975.8,258.6,976.9,263.1,976.9,268.8z
			 M965.5,269c0-3.5-0.5-6-1.6-7.6c-1.1-1.6-2.8-2.4-5-2.4c-1,0-2,0.2-3,0.5c-1,0.3-2,0.8-2.9,1.4V279c0.6,0.3,1.3,0.4,2,0.5
			c0.7,0.1,1.6,0.2,2.5,0.2c2.7,0,4.8-0.9,6.1-2.7C964.8,275.3,965.5,272.6,965.5,269z"/>
		<path d="M1004.1,283.4c-0.8,0.6-1.5,1.2-2.1,1.7s-1.4,1-2.4,1.5c-1,0.5-2,0.9-2.9,1.1c-0.9,0.3-2.3,0.4-4,0.4
			c-3.2,0-5.8-1.1-7.9-3.2c-2.1-2.1-3.1-4.8-3.1-8.1c0-2.7,0.5-4.8,1.6-6.5c1.1-1.6,2.6-2.9,4.6-3.9c2-1,4.4-1.7,7.3-2
			c2.8-0.4,5.8-0.7,9.1-0.9v-0.2c0-2-0.7-3.4-2.2-4.1c-1.5-0.8-3.6-1.1-6.6-1.1c-1.3,0-2.9,0.2-4.6,0.7c-1.8,0.5-3.5,1.1-5.2,1.8h-1
			v-8.7c1.1-0.3,2.9-0.7,5.4-1.1c2.5-0.4,5-0.7,7.5-0.7c6.2,0,10.7,1,13.5,3.1c2.8,2.1,4.2,5.2,4.2,9.4v24.4h-11.1V283.4z
			 M1004.1,277.9v-7.5c-1.9,0.2-3.4,0.4-4.6,0.5c-1.2,0.1-2.3,0.4-3.5,0.8c-1,0.3-1.7,0.9-2.3,1.6c-0.5,0.7-0.8,1.6-0.8,2.8
			c0,1.7,0.5,2.8,1.4,3.5c0.9,0.6,2.2,0.9,4,0.9c1,0,2-0.2,3-0.7C1002.3,279.3,1003.2,278.7,1004.1,277.9z"/>
		<path d="M1042.5,288.2c-3,0-5.7-0.4-8.1-1.1c-2.5-0.7-4.6-1.9-6.4-3.5c-1.8-1.6-3.2-3.5-4.2-5.9c-1-2.4-1.5-5.1-1.5-8.3
			c0-3.4,0.5-6.3,1.6-8.8c1.1-2.4,2.6-4.4,4.4-5.9c1.8-1.5,3.9-2.6,6.3-3.3c2.4-0.7,4.9-1.1,7.6-1.1c2,0,4,0.2,5.9,0.7
			c2,0.5,4,1.2,6,2.2v9.6h-1.4c-0.4-0.4-1-0.9-1.6-1.4c-0.6-0.5-1.4-1-2.1-1.4c-0.8-0.4-1.7-0.8-2.7-1.1c-1-0.3-2.2-0.5-3.4-0.5
			c-2.9,0-5.1,1-6.6,3c-1.6,2-2.4,4.7-2.4,8c0,3.6,0.8,6.3,2.5,8.1c1.7,1.8,3.9,2.7,6.7,2.7c1.4,0,2.6-0.2,3.7-0.5
			c1.1-0.3,2-0.7,2.7-1.2c0.7-0.4,1.4-0.9,1.9-1.4c0.5-0.5,1-0.9,1.4-1.3h1.4v9.6c-0.6,0.3-1.4,0.6-2.2,1c-0.8,0.4-1.7,0.7-2.6,0.9
			c-1.1,0.3-2.1,0.5-3.1,0.7C1045.3,288.1,1044,288.2,1042.5,288.2z"/>
		<path d="M1079.1,288.2c-6.8,0-12-1.6-15.6-4.9c-3.6-3.2-5.4-7.9-5.4-13.8c0-5.9,1.7-10.5,5.1-14c3.4-3.5,8.1-5.2,14.1-5.2
			c5.5,0,9.6,1.5,12.4,4.4c2.8,3,4.2,7.2,4.2,12.7v4h-24.5c0.1,1.7,0.5,3.1,1.1,4.2c0.6,1.1,1.4,2,2.4,2.7c1,0.7,2.1,1.1,3.4,1.4
			s2.7,0.4,4.2,0.4c1.3,0,2.6-0.1,3.8-0.4c1.3-0.3,2.4-0.7,3.5-1.1c0.9-0.4,1.8-0.8,2.5-1.3c0.8-0.5,1.4-0.9,1.9-1.2h1.2v9.2
			c-0.9,0.4-1.8,0.7-2.5,1c-0.8,0.3-1.8,0.6-3.1,0.9c-1.2,0.3-2.5,0.6-3.8,0.8C1082.5,288.1,1081,288.2,1079.1,288.2z M1082.8,264.7
			c-0.1-2.4-0.6-4.2-1.6-5.4c-1-1.2-2.6-1.9-4.7-1.9c-2.2,0-3.9,0.7-5.1,2c-1.2,1.3-1.9,3.1-2,5.3H1082.8z"/>
	</g>
	<g>
		<defs>
			<path id="SVGID_1_" d="M1036.8,142.2c5.8-0.1,7.6-4.2,10-7.5c11-15.1,22.3-30,33-45.3c3.9-5.6,6.6-12.2,10-18.2
				c1.2-2.1,2.6-4.2,4.4-5.8c2.1-2,5-2.1,7.3-0.6c2.8,1.8,4.1,4.9,3.6,7.8c-1.7,9.7-6.6,18-12,26c-9.8,14.7-20,29.1-30.1,43.5
				c-5.7,8.1-5.4,18.1,0.5,27.6c3.4,5.5,7.5,10.5,14.1,12.1c2.6,0.7,5.7,0,8.5-0.3c0.6-0.1,1.2-0.9,1.6-1.6c1.2-2.4,3.4-2.7,4.9-0.5
				c5.3,7.9,2.9,18.1-7.3,20.5c-4.4,1-9.5,1.5-13.8,0.4c-3.9-1-7.3-4.2-10.8-6.7c-2.9-2.1-5.5-4.6-8.2-6.8c-1.9-1.5-3.1-0.9-4.6,1
				c-7.2,9.4-14.4,18.6-21.9,27.7c-2.3,2.8-5.3,4.6-9.4,5c-7.1,0.6-11.1-5.5-12.1-10.9c-1.3-7.4-0.4-14.6,2.2-21.6
				c0.2-0.5,0.6-1.2,0.4-1.6c-2.2-4.9,0.1-9.6,0.6-13.4c-3.8,3.5-8,7.5-12.3,11.3c-4.9,4.3-9.3,9.4-15.6,11.8
				c-7.5,2.9-14.6,0.8-18.9-6.1c-3.6-5.9-7.4-11.6-11.3-17.3c-2.6-4-4-3.9-7.5-0.6c-4.1,3.8-8.5,7.3-12.5,11.1
				c-2.4,2.3-4.2,5.1-6.5,7.4c-4.5,4.5-9.3,8.9-13.9,13.4c-2.1,2.1-4.4,4.3-6,6.8c-2.3,3.4-5.3,4.8-9.2,4.7c-1.4,0-2.8-0.1-4.1,0
				c-6.6,0.3-7.2-2.8-7.8-7.7c-0.7-5.4,0.9-10.2,3.3-14.9c0.5-1,1.1-2.2,1.1-3.3c-0.4-7.1,2.4-13.5,4.4-20c0.8-2.7,1.4-5.5,2.1-8.3
				c-0.3-0.2-0.6-0.3-0.8-0.5c-1.2,1-2.6,1.9-3.7,3.1c-5.4,6-10.3,12.5-16.1,18c-6.6,6.3-13.2,12.7-21.9,16.6
				c-15.3,6.8-28.8-6.2-31.2-16.9c0-0.2,0-0.4-0.1-0.5c-2.3-3.6-4.5-7.2-6.9-10.7c-0.3-0.5-2-0.6-2.6-0.2c-2.7,2-5.5,4-7.7,6.5
				c-3.1,3.4-5.3,7.8-8.7,10.7c-6.7,5.6-12.9,12.1-22.1,13.8c-3.7,0.7-7.4,1.8-10.8,3.4c-5.8,2.7-12.1,2.7-18.3,3.7
				c-3.8,0.6-7.8,1.2-11.6,1c-2.7-0.1-5.4-1.6-8.1-2.5c-0.6-0.2-1-0.9-1.6-1c-6.1-1.1-7.6-5.7-8.2-11.5c-3.8,2.4-7.4,4.6-11,6.8
				c-8.5,5.3-17,10.7-26.9,12.9c-11.4,2.5-22.2,1.3-31.2-6.6c-2.4-2.1-3.7-5.5-5.4-8.4c-0.6-1-1-2.1-1.5-3.2
				c-10.6,10.1-23.3,16.9-36.9,22.1c-5.1,1.9-10.3,3.5-15.9,3.2c-8.9-0.6-16.9-3.6-23.4-9.6c-3.7-3.4-4.9-8.6-5.8-13.5
				c-0.3-1.8-0.5-3.6-0.7-5.2c-4.7,3.3-9.6,6.5-14.3,9.9c-5.5,4.1-20.2,5.3-26-0.8c-3.7-3.9-6.5-8.3-8-13.4
				c-0.6-1.9-0.9-3.8-1.5-6.2c-2.5,2.3-5,4.4-7.4,6.7c-4.8,4.8-9.1,9.9-15.3,13.2c-2.7,1.5-4.3,4.8-6.5,7.3
				c-0.7,0.7-1.4,1.6-2.3,1.8c-6,2-11,7-18,5.9c-1.5-0.2-3.1-0.6-4.3-1.3c-1.9-1.2-4-2.5-5.2-4.3c-1.2-1.8-1.4-4.3-2-6.9
				c-2.9,1.8-6.1,3.8-9.4,5.8c-8.6,5.4-17.3,10.9-27.4,13.1c-11.5,2.5-22.5,1-30.8-7.5c-4-4-7.1-9.8-7.8-16
				c-0.6-5.4-1.4-10.9-1-16.3c0.3-4.2,2-8.4,3.7-12.3c3.6-8.2,7.4-16.4,11.8-24.2c1.8-3.2,5.4-5.5,8.4-8.1c4.2-3.8,8.4-7.5,12.9-11
				c1.9-1.5,4.4-2.7,6.8-3.2c9.2-1.7,19,1.8,21.5,10.6c1.7,6.1,1.1,11.8-2.9,17c-3.8,5-7,10.5-11.2,15.1c-4.3,4.6-9.6,8.2-14.3,12.3
				c-3,2.7-5.9,5.4-8.6,8.4c-1.9,2.1,0.1,7.4,3.1,9.8c5,3.9,10.5,3.2,15.9,1.7c3.6-1,6.9-2.9,10.4-4.4c1.8-0.8,3.7-1.5,5.4-2.4
				c1.3-0.7,2.4-1.6,3.6-2.4c0.8-0.5,1.7-1.3,2.5-1.3c2.3,0,3.3-1.5,4.4-3.2c3.2-5,4.1-10.4,4.3-16.2c0.2-6.5,2.6-12.2,6.9-17.3
				c2.3-2.8,4-6.2,5.7-9.5c5.6-11,13.9-19.3,24.9-24.7c10-4.9,23.9-3.5,32.5,5.2c4.4,4.5,7.7,9.6,9.6,15.6c0.8,2.5,0.2,3.2-2.2,3.7
				c-2,0.4-4,1.2-5.8,2.1c-3.3,1.5-6.2,1.7-9.4-0.6c-5.1-3.6-10.4-6.4-17-6.5c-5.4-0.1-9.9,1.8-13.4,5.7
				c-6.4,7.3-10.6,15.6-10.7,25.5c0,4.2,1.1,8,4.4,11c1.3,1.2,2.3,2.8,3.7,4.5c4.7-1.3,8.6-4.3,11.7-7.9c4.1-4.7,8.7-8.6,13.6-12.2
				c0.5-0.4,1.1-0.9,1.5-1.4c4.8-6,10.6-10.6,18-13.1c1.8-0.6,3.7-0.7,5.6-1c3.2-0.5,4.9,1.3,5.6,4c1.3,5.5,2.7,10.9,0.8,16.6
				c-1.5,4.8,1.7,10.4,6.2,10.9c2.2,0.2,5.4-0.6,6.8-2.2c5.3-5.8,12.3-9.1,17.9-14.3c1.6-1.5,3.1-3.2,4.6-4.7
				c9.1-9.2,20-16.1,30.8-23.1c6.4-4.2,12.8-8.5,19.5-12.1c3.1-1.7,7.1-1.9,10.7-2.6c1.8-0.4,3,0.5,3.7,2.4c1,2.8,2.7,5.4,3.1,8.3
				c0.8,5.6-2.7,9.4-6.4,13c-1.9,1.9-4.2,3.6-6.4,5.1c-8.5,5.8-17.2,11.3-25.7,17.1c-5.7,3.9-10.6,8.5-12.3,15.5
				c-0.7,2.8-0.7,5.9-0.2,8.8c0.2,1.5,2,3.1,3.5,3.9c7.3,4.1,14.8,4.5,22.2,0.2c7.3-4.3,14.5-9,20.6-15c3.3-3.3,5.5-7.1,7-11.5
				c3.7-10.7,8.3-21,14.3-30.6c2-3.2,5.3-5.5,8.2-8.1c4-3.5,8.7-6.5,12.2-10.5c5.4-6,17.6-5.8,23.6-1.1c7.3,5.7,8.1,15.8,3.1,24
				c-3.5,5.7-6.9,11.4-11.8,15.9c-4.3,4-9,7.7-13.5,11.5c-1.1,0.9-2.1,1.9-3.1,2.9c-1.1,1.1-2.1,2.3-3.3,3.3c-2.5,2-4.6,4-2.9,7.7
				c1.8,4.1,5.6,7,9.4,7.3c7.4,0.5,14.1-1.6,20.5-5.3c1.7-1,3.6-1.6,5.4-2.5c2.7-1.3,6.4-2,7.8-4.1c2.7-4.3,7.7-6.9,9-12
				c1-4.1,1.2-8.4,1.9-12.6c1-6.3,2-12.7,3-19c1.2-7.4,2.4-14.8,3.6-22.2c1.2-7.2,2.4-14.4,3.6-21.7c1.2-7.7,2.5-15.5,3.6-23.3
				c2.1-16.2,4.6-32.4,10.1-47.9c0.8-2.3,3.4-4.2,5.7-5.5c2.8-1.6,5.9-2.6,9-3.4c1.2-0.3,2.8,0.3,3.9,1c5.4,3.3,8.5,10.7,6.8,16.9
				c-3.1,11.2-6.8,22.2-9.7,33.5c-2.1,8.2-3.9,16.5-4.8,24.9c-1.8,17.3-5.5,34.2-8.8,51.3c-1.7,8.7-2.8,17.5-3.9,26.3
				c-0.4,3.3-0.5,6.7-0.6,10.1c0,3,1,4.1,3.9,3.9c7.5-0.5,15.1-0.4,22.2-3.3c1.2-0.5,2.2-1.2,3.4-1.7c2.3-1,4.6-1.9,6.9-2.8
				c2.8-1.1,5.7-2.3,8.5-3.5c2.7-1.2,5.5-2.1,7.9-3.8c2.3-1.6,4.1-3.9,6.1-5.8c0.2-0.2,0.2-0.6,0.4-0.7c6.1-3.7,8.2-10.9,13.5-15.3
				c3.6-2.9,6.5-6.6,10-9.6c1.1-0.9,3.3-1,4.9-0.9c3.7,0.4,6.6,2.4,9.7,4.4c5,3.3,5,8.1,5.6,13.1c0.9,6.4,1.7,12.9,3.4,19.2
				c1.5,5.5,4.9,6.7,10.1,4.1c2-0.9,3.7-2.4,5.4-3.8c1.6-1.2,3.1-2.5,4.5-4c2.9-3,5.8-6,8.5-9.1c4.9-5.7,9.7-11.5,14.6-17.3
				c4.2-4.9,8.4-9.8,12.6-14.8c3.4-4,8.1-5.4,12.9-6.2c8.1-1.4,13.9,4.2,14.1,12.5c0.3,10.8-3.2,20.7-6.9,30.5
				c-1.1,2.9-2.2,5.9-2.9,8c5.7-5.4,11.7-11.4,18-17.1c3.9-3.5,7.9-7,12.2-10c4.7-3.3,10.1-3.3,15.6-2.6c3.7,0.5,5.5,2.3,6.9,5.6
				c3.1,7.1,6.5,14,10,20.8c3,5.8,5.4,6.2,9.7,1.4c4.4-4.8,9-9.6,12.3-15.2c4.6-7.8,8.6-16.2,11.9-24.6c4.9-12.3,9.3-24.8,13.4-37.4
				c2-6.2,4.2-12.2,7.9-17.7c4.1-6.2,4.8-13.6,7.1-20.4c1.7-5,3.5-10.1,5.9-14.8c4.3-8.5,8.4-7.3,14.1-0.7c2.6,3,3.4,7.1,3.6,11.2
				c0.4,8.8-1.7,17-4.8,25.2c-6.4,17-12.3,34.1-18.3,51.3C1040.3,129.9,1038.7,136,1036.8,142.2z M1034.5,154.1
				c-0.2,0-0.3,0-0.5,0.1c-2.5,11.2-5,22.4-7.5,33.7c0.3,0.1,0.5,0.2,0.8,0.2c0.4-0.5,0.8-0.9,1.1-1.4c2.9-5.6,5.8-11.3,8.7-17
				c0.4-0.7,0.4-1.8,0.2-2.6C1036.4,162.7,1035.4,158.4,1034.5,154.1z M406.3,152.6c-5.6,4-9,9-12.4,15
				C400,165.2,406.6,157.4,406.3,152.6z M662.7,157.9c4.4-4.1,10.5-6.8,11-13.9C668.7,147.6,665.2,152.4,662.7,157.9z M292.5,238.7
				c-0.3-5.7-0.8-11.3-0.7-17c0-10.3,0.3-20.5,0.5-30.8c0-2.6-0.2-5.2,0.1-7.7c0.2-2.4-0.8-3.7-2.7-4.7c-1.5-0.8-2.9-1.8-4.3-2.9
				c-2.8-2.2-2.7-6.8,0.3-9c1.3-1,2.6-2.1,4.1-2.5c3.5-1,4.2-3.6,4.7-6.7c1.6-10.5,3.3-21,4.9-31.5c1.2-8.4,2.3-16.9,3.4-25.3
				c1.3-10.1,2.5-20.3,3.9-30.4c0.6-4.8,1.9-9.6,2-14.5c0-2.5-1.6-5.2-3-7.6c-2.1-3.4-4.4-6.7-6.9-9.7c-2.7-3.2-2.1-6.4-1-9.9
				c1.4-4.3,4.3-7.3,7.9-9.8c2.3-1.6,4.9-2.9,7-4.7c4.7-4,9.8-3.7,15.3-2.5c9.8,2.1,17.9,7.5,25.9,13c8.2,5.7,15.5,12.5,22.1,20
				c8.4,9.5,15.5,19.9,19.8,32c3.3,9.3,5,18.9,4.1,28.6c-1.5,16.5-9.5,29.6-22,40.1c-16.2,13.6-35.4,20.7-55.4,26
				c-0.1,0-0.2,0-0.3,0c-6.6,1.6-7.6,2.8-7.7,9.8c-0.1,10.4-0.2,20.8,0,31.2c0.1,8,0.4,16.1,1.1,24.1c0.9,9.6,2.4,19.2,3.9,28.7
				c0.3,1.8,1.7,3.3,2.4,5.1c0.4,0.9,0.8,2.3,0.4,3c-3.4,5.6-7,11.2-12.6,15c-0.2,0.2-0.4,0.3-0.7,0.5c-7.4,3.8-10.9,1.9-12.7-5.3
				c-1.6-6.3-2.2-13-2.8-19.5c-0.8-8.4-1.1-16.8-1.6-25.1C292.1,238.7,292.3,238.7,292.5,238.7z M319.4,151.4c1.8,0.1,3.5,0.7,5,0.2
				c4.8-1.7,9.7-3.4,14.2-5.8c6.9-3.6,13.7-7.4,20.3-11.5c4.6-2.8,8.5-6.5,10.7-11.6c3-7.1,2.4-14.5,1.4-21.7
				c-1.3-9.8-5-19-10.6-27.3c-5.8-8.7-13.2-15.9-21.4-22.2c-4-3.1-8.2-5.7-12.4-8.6c-0.2,0.2-0.4,0.5-0.6,0.7
				c0.1,0.3,0.2,0.6,0.4,0.9c3.1,3.9,6.1,8,9.4,11.8c2.2,2.5,3.6,4.9,3.4,8.5c-0.1,3.6-0.6,7-1.9,10.4c-1,2.7-2,5.4-2.9,8.2
				c-2.7,8.7-6,17.3-6.5,26.5c-0.1,2.4-0.5,5.1-1.8,6.9c-2.1,2.8-2.5,6-3,9.1C321.9,134.2,320.7,142.5,319.4,151.4z M830.3,99.7
				c2.6-0.8,5.4-1.3,7.8-2.5c5.1-2.5,9.8-5.7,12.1-11c3-7,4.5-14.5,4.6-22.1c0-1.1-0.4-2.3-1.1-3.2c-2.6-3.5-4.2-3.9-9.4-2.2
				c-8.6,2.9-15.1,8.9-21.1,15.3c-4,4.3-6.2,10-4.7,16.2c0.9,3.9,1.8,8.1,6.9,8.8c1.5,0.2,3.1,0,4.7,0
				C830.1,99.2,830.2,99.4,830.3,99.7z"/>
		</defs>
		<clipPath id="SVGID_2_">
			<use xlink:href="#SVGID_1_"  style="overflow:visible;"/>
		</clipPath>
		<linearGradient id="SVGID_3_" gradientUnits="userSpaceOnUse" x1="259.499" y1="130.7444" x2="1127.7607" y2="130.7444">
			<stop  offset="0" style="stop-color:#9D272B"/>
			<stop  offset="3.907121e-02" style="stop-color:#9D272C"/>
			<stop  offset="6.268769e-02" style="stop-color:#9D272E"/>
			<stop  offset="8.219385e-02" style="stop-color:#9D2833"/>
			<stop  offset="9.946976e-02" style="stop-color:#9D283B"/>
			<stop  offset="0.1153" style="stop-color:#9D2847"/>
			<stop  offset="0.13" style="stop-color:#9E2853"/>
			<stop  offset="0.1439" style="stop-color:#9E2861"/>
			<stop  offset="0.1571" style="stop-color:#9F2873"/>
			<stop  offset="0.1694" style="stop-color:#A02887"/>
			<stop  offset="0.1715" style="stop-color:#A0298B"/>
			<stop  offset="0.2526" style="stop-color:#373576"/>
			<stop  offset="0.2848" style="stop-color:#373876"/>
			<stop  offset="0.3245" style="stop-color:#374175"/>
			<stop  offset="0.368" style="stop-color:#364E74"/>
			<stop  offset="0.4143" style="stop-color:#365F71"/>
			<stop  offset="0.4628" style="stop-color:#39736C"/>
			<stop  offset="0.5124" style="stop-color:#3D8D5F"/>
			<stop  offset="0.5525" style="stop-color:#42A64F"/>
			<stop  offset="0.791" style="stop-color:#FDE92B"/>
			<stop  offset="0.9926" style="stop-color:#EB2D2E"/>
		</linearGradient>
		<rect x="259.5" y="-48.6" class="st1" width="870.8" height="358.7"/>
	</g>
</g>
<g id="PeaceTest" class="st0">
	<text transform="matrix(1 0 0 1 262.5897 384.6411)" class="st2" style="font-family:'Tahoma-Bold'; font-size:46px;">laboratorio telematico</text>
	<g class="st2">
		<defs>
			<text id="SVGID_4_" transform="matrix(1 0 0 1 212.0672 332.6495)" class="st3 st4">Peacetest</text>
		</defs>
		<clipPath id="SVGID_5_">
			<use xlink:href="#SVGID_4_"  style="overflow:visible;"/>
		</clipPath>
		<linearGradient id="SVGID_6_" gradientUnits="userSpaceOnUse" x1="205.4904" y1="274.6664" x2="815.5948" y2="274.6664">
			<stop  offset="0" style="stop-color:#9D272B"/>
			<stop  offset="3.907121e-02" style="stop-color:#9D272C"/>
			<stop  offset="6.268769e-02" style="stop-color:#9D272E"/>
			<stop  offset="8.219385e-02" style="stop-color:#9D2833"/>
			<stop  offset="9.946976e-02" style="stop-color:#9D283B"/>
			<stop  offset="0.1153" style="stop-color:#9D2847"/>
			<stop  offset="0.13" style="stop-color:#9E2853"/>
			<stop  offset="0.1439" style="stop-color:#9E2861"/>
			<stop  offset="0.1571" style="stop-color:#9F2873"/>
			<stop  offset="0.1694" style="stop-color:#A02887"/>
			<stop  offset="0.1715" style="stop-color:#A0298B"/>
			<stop  offset="0.2526" style="stop-color:#373576"/>
			<stop  offset="0.2848" style="stop-color:#373876"/>
			<stop  offset="0.3245" style="stop-color:#374175"/>
			<stop  offset="0.368" style="stop-color:#364E74"/>
			<stop  offset="0.4143" style="stop-color:#365F71"/>
			<stop  offset="0.4628" style="stop-color:#39736C"/>
			<stop  offset="0.5124" style="stop-color:#3D8D5F"/>
			<stop  offset="0.5525" style="stop-color:#42A64F"/>
			<stop  offset="0.791" style="stop-color:#FDE92B"/>
			<stop  offset="0.9926" style="stop-color:#EB2D2E"/>
		</linearGradient>
		<rect x="205.5" y="148.7" class="st5" width="611.9" height="252"/>
	</g>
</g>
</svg>
