<svg xmlns="http://www.w3.org/2000/svg" xmlns:xlink="http://www.w3.org/1999/xlink" viewBox="0 0 788.58 252.03"><defs><style>.cls-1{fill:none;}.cls-2{fill:#231f20;}.cls-3{clip-path:url(#clip-path);}.cls-4{fill:url(#linear-gradient);}</style><clipPath id="clip-path" transform="translate(-28.81 -148.65)"><path class="cls-1" d="M751.71,282.69c4.07-.1,5.31-3,7-5.3,7.76-10.6,15.66-21.1,23.2-31.85,2.77-4,4.64-8.54,7-12.78a17.83,17.83,0,0,1,3.08-4.09,4,4,0,0,1,5.11-.41,5.44,5.44,0,0,1,2.49,5.48c-1.22,6.82-4.67,12.67-8.4,18.28-6.87,10.31-14,20.43-21.17,30.56-4,5.71-3.79,12.74.33,19.38,2.41,3.89,5.3,7.36,9.91,8.54,1.85.47,4,0,6-.23.41,0,.87-.66,1.11-1.11.88-1.67,2.38-1.9,3.42-.36,3.75,5.52,2,12.74-5.12,14.41a21.7,21.7,0,0,1-9.72.29c-2.74-.67-5.14-2.94-7.56-4.69-2-1.46-3.83-3.21-5.79-4.77-1.32-1-2.17-.62-3.21.74-5,6.58-10.14,13.1-15.41,19.49a9.28,9.28,0,0,1-6.6,3.48c-5,.43-7.83-3.87-8.51-7.63a29,29,0,0,1,1.52-15.2c.13-.36.42-.83.3-1.09-1.55-3.45,0-6.74.42-9.43-2.65,2.44-5.6,5.26-8.66,7.95-3.45,3-6.53,6.58-11,8.27-5.27,2-10.27.53-13.25-4.27-2.55-4.12-5.23-8.16-7.92-12.19-1.86-2.78-2.79-2.74-5.26-.45-2.87,2.67-6,5.1-8.8,7.79-1.67,1.58-2.94,3.58-4.57,5.22-3.19,3.19-6.53,6.23-9.75,9.4a31.76,31.76,0,0,0-4.23,4.75,7.13,7.13,0,0,1-6.48,3.33c-1,0-1.94,0-2.91,0-4.64.2-5.07-2-5.49-5.39-.46-3.76.65-7.17,2.31-10.48a5,5,0,0,0,.75-2.31c-.29-5,1.68-9.46,3.11-14.06.59-1.9,1-3.87,1.45-5.81l-.59-.34a23.64,23.64,0,0,0-2.57,2.17c-3.79,4.21-7.25,8.76-11.34,12.64-4.65,4.42-9.25,8.94-15.37,11.66-10.75,4.76-20.21-4.35-21.92-11.86,0-.12,0-.28,0-.38-1.58-2.53-3.13-5.09-4.83-7.54a1.88,1.88,0,0,0-1.81-.12,38.08,38.08,0,0,0-5.43,4.55c-2.18,2.38-3.69,5.47-6.13,7.49-4.71,3.91-9.06,8.52-15.56,9.73a32.1,32.1,0,0,0-7.6,2.36c-4.11,1.9-8.53,1.88-12.82,2.6a38.13,38.13,0,0,1-8.17.71c-1.92-.1-3.8-1.11-5.69-1.77-.41-.14-.71-.66-1.11-.73-4.32-.8-5.36-4-5.76-8.06L515.95,324c-6,3.69-11.92,7.52-18.92,9.06-8,1.76-15.58.94-22-4.65-1.69-1.48-2.58-3.88-3.78-5.88a20.74,20.74,0,0,1-1-2.25c-7.48,7.12-16.4,11.86-25.94,15.51-3.57,1.37-7.24,2.47-11.16,2.22a26,26,0,0,1-16.45-6.74c-2.6-2.4-3.44-6-4.07-9.49-.23-1.24-.36-2.5-.51-3.65-3.32,2.3-6.75,4.55-10,7-3.88,2.89-14.19,3.74-18.27-.6a24.08,24.08,0,0,1-5.65-9.43c-.41-1.32-.66-2.69-1.06-4.36-1.79,1.62-3.55,3.09-5.17,4.7-3.36,3.34-6.43,6.92-10.74,9.28-1.89,1-3,3.4-4.58,5.12a4.26,4.26,0,0,1-1.64,1.29c-4.21,1.37-7.73,4.91-12.62,4.14a8.09,8.09,0,0,1-3-.93,11.45,11.45,0,0,1-3.64-3.05c-.84-1.3-.95-3.06-1.44-4.83-2,1.26-4.32,2.66-6.58,4.07-6.08,3.8-12.14,7.65-19.28,9.19-8.07,1.74-15.8.69-21.67-5.27a19.32,19.32,0,0,1-5.46-11.25,63.9,63.9,0,0,1-.67-11.46,27.28,27.28,0,0,1,2.62-8.64c2.56-5.77,5.18-11.54,8.28-17,1.29-2.28,3.82-3.87,5.87-5.69,3-2.64,5.93-5.3,9.06-7.74a11.52,11.52,0,0,1,4.74-2.24c6.49-1.2,13.34,1.25,15.11,7.44a12.77,12.77,0,0,1-2,11.91c-2.67,3.5-4.9,7.39-7.88,10.58s-6.72,5.73-10,8.66a72.62,72.62,0,0,0-6,5.92c-1.34,1.5,0,5.19,2.21,6.9,3.49,2.75,7.37,2.21,11.15,1.19a53.69,53.69,0,0,0,7.3-3.11c1.27-.56,2.57-1.08,3.8-1.72.89-.46,1.67-1.12,2.52-1.66.56-.36,1.16-.93,1.74-.93,1.65,0,2.32-1.08,3.06-2.23,2.24-3.48,2.91-7.34,3.05-11.41A19.66,19.66,0,0,1,340,289.88a35.82,35.82,0,0,0,4-6.68,38.2,38.2,0,0,1,17.48-17.33c7-3.48,16.79-2.49,22.82,3.65A26.55,26.55,0,0,1,391,280.47c.53,1.74.11,2.25-1.57,2.57a17.71,17.71,0,0,0-4.09,1.44,5.93,5.93,0,0,1-6.6-.44c-3.55-2.51-7.34-4.53-12-4.59a11.7,11.7,0,0,0-9.38,4c-4.46,5.11-7.47,10.94-7.53,17.94a9.79,9.79,0,0,0,3.06,7.73,29.29,29.29,0,0,1,2.58,3.13,17.22,17.22,0,0,0,8.25-5.54,58.29,58.29,0,0,1,9.54-8.56,5.57,5.57,0,0,0,1-1A26.92,26.92,0,0,1,386.91,288a24.94,24.94,0,0,1,3.91-.71c2.23-.36,3.46.91,3.91,2.81.89,3.83,1.89,7.64.6,11.68-1.08,3.35,1.16,7.3,4.37,7.63a6.39,6.39,0,0,0,4.77-1.55c3.69-4,8.64-6.41,12.61-10,1.14-1,2.15-2.22,3.24-3.32,6.42-6.47,14.06-11.32,21.65-16.23,4.51-2.92,9-6,13.7-8.5,2.19-1.18,5-1.33,7.48-1.84a2.14,2.14,0,0,1,2.6,1.65c.69,2,1.89,3.82,2.2,5.83.59,3.91-1.93,6.62-4.47,9.11a32.13,32.13,0,0,1-4.52,3.58c-6,4-12.06,8-18,12-4,2.71-7.48,6-8.62,10.88a16.15,16.15,0,0,0-.16,6.16,4.89,4.89,0,0,0,2.43,2.75c5.14,2.87,10.41,3.19,15.62.11a74.47,74.47,0,0,0,14.47-10.57,20.25,20.25,0,0,0,4.94-8.09,107.61,107.61,0,0,1,10-21.51c1.37-2.23,3.73-3.88,5.75-5.67,2.83-2.49,6.08-4.57,8.57-7.35,3.76-4.2,12.34-4.05,16.55-.8,5.15,4,5.7,11.14,2.19,16.88-2.46,4-4.88,8-8.31,11.2-3,2.84-6.35,5.39-9.52,8.08-.77.65-1.48,1.37-2.2,2.07a32.72,32.72,0,0,1-2.34,2.32c-1.79,1.42-3.23,2.82-2.06,5.44,1.29,2.88,3.93,4.95,6.6,5.13a24.15,24.15,0,0,0,14.38-3.76c1.19-.71,2.55-1.12,3.8-1.72,1.89-.91,4.53-1.39,5.48-2.91,1.9-3,5.44-4.85,6.34-8.42.73-2.88.85-5.9,1.31-8.86.68-4.45,1.42-8.89,2.14-13.33.84-5.19,1.66-10.38,2.51-15.57s1.71-10.15,2.52-15.24c.87-5.45,1.78-10.89,2.5-16.35,1.49-11.4,3.23-22.76,7.13-33.63.57-1.58,2.42-2.94,4-3.86a26.09,26.09,0,0,1,6.35-2.42,4.09,4.09,0,0,1,2.77.67,11.08,11.08,0,0,1,4.77,11.84c-2.21,7.86-4.81,15.62-6.85,23.52a122.59,122.59,0,0,0-3.36,17.52c-1.29,12.16-3.88,24.06-6.21,36-1.19,6.1-1.94,12.29-2.77,18.45a59.7,59.7,0,0,0-.39,7.1c0,2.08.73,2.87,2.76,2.74,5.26-.33,10.59-.28,15.6-2.3.82-.33,1.56-.82,2.37-1.17,1.61-.68,3.24-1.3,4.85-2,2-.81,4-1.59,6-2.44a33.24,33.24,0,0,0,5.58-2.65,33,33,0,0,0,4.29-4.11c.13-.13.13-.41.27-.49,4.28-2.6,5.75-7.67,9.5-10.77,2.5-2.07,4.57-4.66,7.05-6.76a5.1,5.1,0,0,1,3.44-.6c2.58.26,4.67,1.66,6.83,3.08,3.5,2.29,3.49,5.71,4,9.18a108.1,108.1,0,0,0,2.37,13.48c1,3.88,3.42,4.67,7.1,2.89a22.22,22.22,0,0,0,3.8-2.66,31.33,31.33,0,0,0,3.16-2.78c2-2.09,4.06-4.2,6-6.4,3.47-4,6.84-8.08,10.27-12.12,2.93-3.46,5.89-6.9,8.82-10.37,2.37-2.79,5.7-3.78,9-4.35,5.71-1,9.77,2.93,9.94,8.81.22,7.59-2.22,14.53-4.84,21.45-.78,2.06-1.52,4.13-2.07,5.61,4-3.79,8.23-8,12.63-12a86.82,86.82,0,0,1,8.59-7c3.29-2.3,7.08-2.34,11-1.8,2.59.36,3.87,1.62,4.88,4,2.14,5,4.55,9.83,7,14.64,2.11,4.09,3.78,4.36,6.83,1s6.34-6.78,8.65-10.69a126.4,126.4,0,0,0,8.38-17.32c3.45-8.64,6.53-17.44,9.42-26.29a49.69,49.69,0,0,1,5.52-12.43c2.9-4.35,3.34-9.53,5-14.3a81.91,81.91,0,0,1,4.18-10.4c3.05-6,5.91-5.13,9.93-.52,1.86,2.14,2.38,5,2.52,7.84.31,6.17-1.21,11.92-3.38,17.67-4.5,11.93-8.67,24-12.88,36C754.17,274.1,753,278.38,751.71,282.69Zm-1.66,8.41-.33,0-5.29,23.66.55.17a6.8,6.8,0,0,0,.77-1c2.05-4,4.1-7.94,6.09-11.94a3.08,3.08,0,0,0,.17-1.84C751.4,297.15,750.71,294.12,750.05,291.09ZM308.61,290c-3.94,2.79-6.33,6.35-8.73,10.55C304.23,298.89,308.82,293.41,308.61,290Zm180.18,3.73c3.07-2.9,7.41-4.81,7.74-9.79A24.5,24.5,0,0,0,488.79,293.75ZM228.7,350.5c-.19-4-.53-8-.53-11.93,0-7.21.23-14.42.35-21.62,0-1.81-.14-3.63,0-5.42a3.09,3.09,0,0,0-1.88-3.33,22.48,22.48,0,0,1-3-2,4,4,0,0,1,.23-6.3,10.22,10.22,0,0,1,2.91-1.76c2.43-.72,2.95-2.52,3.27-4.68,1.1-7.39,2.35-14.77,3.44-22.16.87-5.91,1.6-11.85,2.36-17.77.92-7.12,1.79-14.24,2.73-21.36.45-3.39,1.34-6.77,1.39-10.16,0-1.77-1.15-3.68-2.14-5.31a53.17,53.17,0,0,0-4.87-6.83c-1.91-2.25-1.47-4.52-.69-6.94a13.36,13.36,0,0,1,5.52-6.87,57.42,57.42,0,0,0,4.9-3.32c3.27-2.82,6.91-2.61,10.75-1.77,6.86,1.51,12.58,5.25,18.2,9.16a88.62,88.62,0,0,1,15.55,14c5.92,6.65,10.89,14,13.93,22.47A46.8,46.8,0,0,1,304,256.71c-1.05,11.57-6.64,20.8-15.45,28.2-11.37,9.55-24.85,14.56-39,18.24-.06,0-.13,0-.19,0-4.66,1.11-5.37,1.95-5.4,6.88,0,7.3-.11,14.6,0,21.89.1,5.64.26,11.3.8,16.91.66,6.76,1.69,13.48,2.72,20.2.19,1.25,1.21,2.35,1.71,3.58.27.65.58,1.63.29,2.1-2.42,3.95-4.94,7.84-8.83,10.57a4.31,4.31,0,0,1-.47.33c-5.19,2.68-7.65,1.33-8.92-3.72a89.06,89.06,0,0,1-2-13.72c-.54-5.87-.74-11.78-1.09-17.67Zm18.9-61.29c1.23.06,2.49.47,3.49.12a78.17,78.17,0,0,0,10-4c4.85-2.5,9.59-5.23,14.23-8.1a18,18,0,0,0,7.51-8.18c2.1-5,1.68-10.2,1-15.27a45,45,0,0,0-7.44-19.16A66.45,66.45,0,0,0,261.33,219c-2.79-2.15-5.79-4-8.7-6l-.41.49a2.81,2.81,0,0,0,.28.62c2.19,2.77,4.32,5.6,6.63,8.27a8.08,8.08,0,0,1,2.41,5.94,22.27,22.27,0,0,1-1.32,7.31c-.73,1.9-1.42,3.81-2,5.75-1.91,6.11-4.23,12.12-4.55,18.65a9.44,9.44,0,0,1-1.28,4.88c-1.45,2-1.76,4.19-2.12,6.4C249.31,277.07,248.52,282.91,247.6,289.2Zm358.94-36.38a39.83,39.83,0,0,0,5.5-1.77c3.57-1.72,6.9-4,8.49-7.74a41.54,41.54,0,0,0,3.26-15.54,4,4,0,0,0-.75-2.27c-1.8-2.49-3-2.77-6.61-1.56-6.06,2-10.64,6.27-14.82,10.76a12.18,12.18,0,0,0-3.31,11.36c.66,2.73,1.29,5.68,4.83,6.2a23.08,23.08,0,0,0,3.27,0Z"/></clipPath><linearGradient id="linear-gradient" x1="176.68" y1="126.01" x2="786.78" y2="126.01" gradientUnits="userSpaceOnUse"><stop offset="0" stop-color="#9d272b"/><stop offset="0.05" stop-color="#9d272e"/><stop offset="0.08" stop-color="#9d2736"/><stop offset="0.11" stop-color="#9e2844"/><stop offset="0.13" stop-color="#9e2859"/><stop offset="0.16" stop-color="#9f2873"/><stop offset="0.17" stop-color="#a0298b"/><stop offset="0.25" stop-color="#373576"/><stop offset="0.3" stop-color="#383a74"/><stop offset="0.36" stop-color="#39496f"/><stop offset="0.43" stop-color="#3b6266"/><stop offset="0.5" stop-color="#3f855a"/><stop offset="0.55" stop-color="#42a64f"/><stop offset="0.79" stop-color="#fde92b"/><stop offset="0.99" stop-color="#eb2d2e"/></linearGradient></defs><title>PeaceLink Logo</title><g id="Text"><path class="cls-2" d="M275.26,385.13q-4.81,0-7-2t-2.19-6.47V364.9h-3v-5.48h3v-7.21h7.86v7.21h7.57v5.48h-7.57v8.94q0,1.33,0,2.31a4.74,4.74,0,0,0,.36,1.77,2.49,2.49,0,0,0,1.11,1.25,4.73,4.73,0,0,0,2.32.46,6.82,6.82,0,0,0,1.65-.27,6.9,6.9,0,0,0,1.43-.49h.67v5.55a22.08,22.08,0,0,1-2.72.53A27.29,27.29,0,0,1,275.26,385.13Z" transform="translate(-28.81 -148.65)"/><path class="cls-2" d="M298.59,385.31q-7.14,0-10.95-3.41t-3.81-9.73q0-6.18,3.55-9.86t9.93-3.68q5.79,0,8.71,3.12t2.92,8.94v2.83H291.72a7.16,7.16,0,0,0,.74,2.93,5.1,5.1,0,0,0,1.66,1.88,6.69,6.69,0,0,0,2.36,1,13.34,13.34,0,0,0,2.94.3,12,12,0,0,0,2.7-.3,12.94,12.94,0,0,0,2.43-.8,16,16,0,0,0,1.79-.92q.82-.49,1.34-.88h.83v6.49l-1.76.71a16,16,0,0,1-2.19.66,22.8,22.8,0,0,1-2.64.53A24.22,24.22,0,0,1,298.59,385.31Zm2.61-16.53A6,6,0,0,0,300,365a4.1,4.1,0,0,0-3.34-1.3,4.69,4.69,0,0,0-3.58,1.37,5.71,5.71,0,0,0-1.43,3.73Z" transform="translate(-28.81 -148.65)"/><path class="cls-2" d="M321.82,384.64H314V349.69h7.86Z" transform="translate(-28.81 -148.65)"/><path class="cls-2" d="M341.72,385.31q-7.14,0-10.95-3.41T327,372.17q0-6.18,3.55-9.86t9.93-3.68q5.79,0,8.71,3.12t2.92,8.94v2.83H334.85a7.16,7.16,0,0,0,.74,2.93,5.1,5.1,0,0,0,1.66,1.88,6.69,6.69,0,0,0,2.36,1,13.34,13.34,0,0,0,2.94.3,12,12,0,0,0,2.7-.3,12.94,12.94,0,0,0,2.43-.8,16,16,0,0,0,1.79-.92q.82-.49,1.34-.88h.83v6.49l-1.76.71a16,16,0,0,1-2.19.66,22.8,22.8,0,0,1-2.64.53A24.22,24.22,0,0,1,341.72,385.31Zm2.61-16.53a6,6,0,0,0-1.16-3.8,4.1,4.1,0,0,0-3.34-1.3,4.69,4.69,0,0,0-3.58,1.37,5.71,5.71,0,0,0-1.43,3.73Z" transform="translate(-28.81 -148.65)"/><path class="cls-2" d="M387.23,384.64V372q0-1.86-.07-3.14a6.37,6.37,0,0,0-.4-2.09,2.26,2.26,0,0,0-1-1.18,4.36,4.36,0,0,0-2-.37,4.29,4.29,0,0,0-1.77.39,12,12,0,0,0-1.91,1.11v17.88h-7.91V372q0-1.84-.08-3.13a6.59,6.59,0,0,0-.42-2.1,2.26,2.26,0,0,0-1-1.18,4.3,4.3,0,0,0-2-.37,4.25,4.25,0,0,0-1.89.45,13.75,13.75,0,0,0-1.8,1.06v17.88h-7.86V359.42h7.86v2.79a21.57,21.57,0,0,1,3.64-2.56,8,8,0,0,1,3.84-.92,7.48,7.48,0,0,1,4.07,1.1,6.91,6.91,0,0,1,2.67,3.28,23.11,23.11,0,0,1,4.28-3.25,8.21,8.21,0,0,1,4.08-1.13,8.35,8.35,0,0,1,3.14.56A6,6,0,0,1,393,361a8,8,0,0,1,1.58,2.89,14.89,14.89,0,0,1,.53,4.37v16.42Z" transform="translate(-28.81 -148.65)"/><path class="cls-2" d="M415.82,382l-1.45,1.21a8.79,8.79,0,0,1-1.72,1.08,11.5,11.5,0,0,1-2.06.79,11.28,11.28,0,0,1-2.8.27,7.48,7.48,0,0,1-5.56-2.25,7.73,7.73,0,0,1-2.21-5.66,8.21,8.21,0,0,1,1.12-4.54,7.7,7.7,0,0,1,3.23-2.74,16.94,16.94,0,0,1,5.1-1.44q3-.4,6.38-.63v-.13a3,3,0,0,0-1.54-2.89,10.39,10.39,0,0,0-4.62-.8,12.64,12.64,0,0,0-3.26.51,25.15,25.15,0,0,0-3.64,1.29h-.67V360q1.17-.34,3.77-.8a30.17,30.17,0,0,1,5.26-.46q6.51,0,9.49,2.17t3,6.62v17.16h-7.82Zm0-3.91V372.8l-3.23.35a11,11,0,0,0-2.43.57,3.39,3.39,0,0,0-1.61,1.09,3.06,3.06,0,0,0-.57,1.94,2.77,2.77,0,0,0,1,2.44,4.94,4.94,0,0,0,2.82.66,5.25,5.25,0,0,0,2.11-.47A6.54,6.54,0,0,0,415.82,378.06Z" transform="translate(-28.81 -148.65)"/><path class="cls-2" d="M440.08,385.13q-4.81,0-7-2t-2.19-6.47V364.9h-3v-5.48h3v-7.21h7.86v7.21h7.57v5.48h-7.57v8.94q0,1.33,0,2.31a4.74,4.74,0,0,0,.36,1.77,2.49,2.49,0,0,0,1.11,1.25,4.73,4.73,0,0,0,2.33.46,6.82,6.82,0,0,0,1.65-.27,6.9,6.9,0,0,0,1.43-.49h.67v5.55a22.08,22.08,0,0,1-2.72.53A27.28,27.28,0,0,1,440.08,385.13Z" transform="translate(-28.81 -148.65)"/><path class="cls-2" d="M458.58,355.82h-8.31v-6.13h8.31Zm-.22,28.82H450.5V359.42h7.86Z" transform="translate(-28.81 -148.65)"/><path class="cls-2" d="M477.72,385.31a19.63,19.63,0,0,1-5.72-.79,12.29,12.29,0,0,1-4.5-2.43,11.14,11.14,0,0,1-2.94-4.12,16.93,16.93,0,0,1,.09-12,11.56,11.56,0,0,1,3.1-4.18,12.26,12.26,0,0,1,4.44-2.33,18.77,18.77,0,0,1,9.49-.27,18.92,18.92,0,0,1,4.2,1.54v6.74h-1q-.47-.45-1.16-1a11.21,11.21,0,0,0-1.49-1,9.9,9.9,0,0,0-1.93-.8,8.27,8.27,0,0,0-2.4-.33,5.59,5.59,0,0,0-4.66,2.1,8.89,8.89,0,0,0-1.65,5.65q0,3.8,1.76,5.66a6.14,6.14,0,0,0,4.68,1.86,9.09,9.09,0,0,0,2.61-.34,8.92,8.92,0,0,0,1.93-.81,8.61,8.61,0,0,0,1.35-1q.56-.5,1-.91h1v6.74l-1.56.67a13.27,13.27,0,0,1-1.81.63q-1.15.31-2.14.48A16.67,16.67,0,0,1,477.72,385.31Z" transform="translate(-28.81 -148.65)"/><path class="cls-2" d="M504.47,382,503,383.18a8.83,8.83,0,0,1-1.72,1.08,11.49,11.49,0,0,1-2.05.79,11.28,11.28,0,0,1-2.8.27,7.48,7.48,0,0,1-5.56-2.25,7.73,7.73,0,0,1-2.21-5.66,8.21,8.21,0,0,1,1.12-4.54,7.71,7.71,0,0,1,3.23-2.74,17,17,0,0,1,5.1-1.44q3-.4,6.38-.63v-.13A3,3,0,0,0,503,365a10.39,10.39,0,0,0-4.62-.8,12.65,12.65,0,0,0-3.26.51,25.15,25.15,0,0,0-3.64,1.29h-.67V360q1.17-.34,3.77-.8a30.18,30.18,0,0,1,5.26-.46q6.51,0,9.49,2.17t3,6.62v17.16h-7.82Zm0-3.91V372.8l-3.23.35a11,11,0,0,0-2.43.57,3.4,3.4,0,0,0-1.61,1.09,3.06,3.06,0,0,0-.57,1.94,2.77,2.77,0,0,0,1,2.44,4.94,4.94,0,0,0,2.82.66,5.25,5.25,0,0,0,2.11-.47A6.54,6.54,0,0,0,504.47,378.06Z" transform="translate(-28.81 -148.65)"/><path class="cls-2" d="M558.25,371.68q0,6-3.07,9.75a9.45,9.45,0,0,1-7.56,3.71,11.25,11.25,0,0,1-3.28-.43,14.74,14.74,0,0,1-3-1.33v10.51h-7.86V359.42h7.86V362a18.2,18.2,0,0,1,3.53-2.4,9,9,0,0,1,4.16-.92,7.77,7.77,0,0,1,6.78,3.48Q558.25,365.68,558.25,371.68Zm-8,.16q0-3.68-1.13-5.35a4,4,0,0,0-3.54-1.66,6.81,6.81,0,0,0-2.1.34,8.32,8.32,0,0,0-2.05,1v12.69a5.6,5.6,0,0,0,1.38.38,12.25,12.25,0,0,0,1.79.11,5,5,0,0,0,4.27-1.88A9.44,9.44,0,0,0,550.2,371.84Z" transform="translate(-28.81 -148.65)"/><path class="cls-2" d="M576.35,385.31q-7.14,0-11-3.41t-3.81-9.73q0-6.18,3.55-9.86t9.93-3.68q5.79,0,8.71,3.12t2.92,8.94v2.83H569.48a7.18,7.18,0,0,0,.74,2.93,5.11,5.11,0,0,0,1.66,1.88,6.69,6.69,0,0,0,2.36,1,13.34,13.34,0,0,0,2.94.3,12,12,0,0,0,2.7-.3,12.92,12.92,0,0,0,2.43-.8,15.89,15.89,0,0,0,1.79-.92q.82-.49,1.34-.88h.83v6.49l-1.76.71a16,16,0,0,1-2.19.66,22.81,22.81,0,0,1-2.64.53A24.23,24.23,0,0,1,576.35,385.31ZM579,368.78a6,6,0,0,0-1.16-3.8,4.1,4.1,0,0,0-3.33-1.3,4.69,4.69,0,0,0-3.58,1.37,5.72,5.72,0,0,0-1.43,3.73Z" transform="translate(-28.81 -148.65)"/><path class="cls-2" d="M608.65,366.85H608a5.8,5.8,0,0,0-1.3-.24q-.85-.08-1.89-.08a10.17,10.17,0,0,0-2.59.36,25.3,25.3,0,0,0-2.64.85v16.89h-7.86V359.42h7.86V363q.54-.49,1.49-1.25a14.41,14.41,0,0,1,1.74-1.2,9.61,9.61,0,0,1,2-.89,6.94,6.94,0,0,1,2.14-.37l.85,0q.47,0,.85.07Z" transform="translate(-28.81 -148.65)"/><path class="cls-2" d="M634.93,384.64h-7.86V349.69h7.86Z" transform="translate(-28.81 -148.65)"/><path class="cls-2" d="M655.82,382l-1.45,1.21a8.83,8.83,0,0,1-1.72,1.08,11.49,11.49,0,0,1-2.05.79,11.28,11.28,0,0,1-2.8.27,7.48,7.48,0,0,1-5.56-2.25,7.73,7.73,0,0,1-2.21-5.66,8.21,8.21,0,0,1,1.12-4.54,7.71,7.71,0,0,1,3.23-2.74,17,17,0,0,1,5.1-1.44q3-.4,6.38-.63v-.13a3,3,0,0,0-1.54-2.89,10.39,10.39,0,0,0-4.62-.8,12.65,12.65,0,0,0-3.26.51,25.15,25.15,0,0,0-3.64,1.29h-.67V360q1.17-.34,3.77-.8a30.18,30.18,0,0,1,5.26-.46q6.51,0,9.49,2.17t3,6.62v17.16h-7.82Zm0-3.91V372.8l-3.23.35a11,11,0,0,0-2.43.57,3.4,3.4,0,0,0-1.61,1.09,3.06,3.06,0,0,0-.57,1.94,2.77,2.77,0,0,0,1,2.44,4.94,4.94,0,0,0,2.82.66,5.25,5.25,0,0,0,2.11-.47A6.54,6.54,0,0,0,655.82,378.06Z" transform="translate(-28.81 -148.65)"/><path class="cls-2" d="M709.59,371.68q0,6-3.07,9.75a9.45,9.45,0,0,1-7.56,3.71,11.25,11.25,0,0,1-3.28-.43,14.74,14.74,0,0,1-3-1.33v10.51h-7.86V359.42h7.86V362a18.2,18.2,0,0,1,3.53-2.4,9,9,0,0,1,4.16-.92,7.77,7.77,0,0,1,6.78,3.48Q709.59,365.68,709.59,371.68Zm-8,.16q0-3.68-1.13-5.35a4,4,0,0,0-3.54-1.66,6.81,6.81,0,0,0-2.1.34,8.32,8.32,0,0,0-2.05,1v12.69a5.6,5.6,0,0,0,1.38.38,12.25,12.25,0,0,0,1.79.11,5,5,0,0,0,4.27-1.88A9.44,9.44,0,0,0,701.55,371.84Z" transform="translate(-28.81 -148.65)"/><path class="cls-2" d="M728.68,382l-1.45,1.21a8.83,8.83,0,0,1-1.72,1.08,11.49,11.49,0,0,1-2.05.79,11.28,11.28,0,0,1-2.8.27,7.48,7.48,0,0,1-5.56-2.25,7.73,7.73,0,0,1-2.21-5.66,8.21,8.21,0,0,1,1.12-4.54,7.71,7.71,0,0,1,3.23-2.74,17,17,0,0,1,5.1-1.44q3-.4,6.38-.63v-.13a3,3,0,0,0-1.54-2.89,10.39,10.39,0,0,0-4.62-.8,12.65,12.65,0,0,0-3.26.51,25.15,25.15,0,0,0-3.64,1.29H715V360q1.17-.34,3.77-.8a30.18,30.18,0,0,1,5.26-.46q6.51,0,9.49,2.17t3,6.62v17.16h-7.82Zm0-3.91V372.8l-3.23.35a11,11,0,0,0-2.43.57,3.4,3.4,0,0,0-1.61,1.09,3.06,3.06,0,0,0-.57,1.94,2.77,2.77,0,0,0,1,2.44,4.94,4.94,0,0,0,2.82.66,5.25,5.25,0,0,0,2.11-.47A6.54,6.54,0,0,0,728.68,378.06Z" transform="translate(-28.81 -148.65)"/><path class="cls-2" d="M755.66,385.31a19.63,19.63,0,0,1-5.72-.79,12.29,12.29,0,0,1-4.5-2.43,11.14,11.14,0,0,1-2.94-4.12,16.93,16.93,0,0,1,.09-12,11.56,11.56,0,0,1,3.1-4.18,12.26,12.26,0,0,1,4.44-2.33,18.77,18.77,0,0,1,9.49-.27,18.92,18.92,0,0,1,4.2,1.54v6.74h-1q-.47-.45-1.16-1a11.21,11.21,0,0,0-1.49-1,9.9,9.9,0,0,0-1.93-.8,8.27,8.27,0,0,0-2.4-.33,5.59,5.59,0,0,0-4.66,2.1,8.89,8.89,0,0,0-1.65,5.65q0,3.8,1.76,5.66a6.14,6.14,0,0,0,4.68,1.86,9.09,9.09,0,0,0,2.61-.34,8.92,8.92,0,0,0,1.93-.81,8.61,8.61,0,0,0,1.35-1q.56-.5,1-.91h1v6.74l-1.56.67a13.27,13.27,0,0,1-1.81.63q-1.15.31-2.14.48A16.67,16.67,0,0,1,755.66,385.31Z" transform="translate(-28.81 -148.65)"/><path class="cls-2" d="M781.42,385.31q-7.14,0-11-3.41t-3.81-9.73q0-6.18,3.55-9.86t9.93-3.68q5.79,0,8.71,3.12t2.92,8.94v2.83H774.55a7.18,7.18,0,0,0,.74,2.93,5.11,5.11,0,0,0,1.66,1.88,6.69,6.69,0,0,0,2.36,1,13.34,13.34,0,0,0,2.94.3,12,12,0,0,0,2.7-.3,12.92,12.92,0,0,0,2.43-.8,15.89,15.89,0,0,0,1.79-.92q.82-.49,1.34-.88h.83v6.49l-1.76.71a16,16,0,0,1-2.19.66,22.81,22.81,0,0,1-2.64.53A24.23,24.23,0,0,1,781.42,385.31ZM784,368.78a6,6,0,0,0-1.16-3.8,4.1,4.1,0,0,0-3.33-1.3,4.69,4.69,0,0,0-3.58,1.37,5.72,5.72,0,0,0-1.43,3.73Z" transform="translate(-28.81 -148.65)"/></g><g id="Colomba_a_mano" data-name="Colomba a mano"><path d="M83.94,187.91c6.14.56,13.68.43,21.11.53,6.62.09,13.33.23,20,.19,15.4-.1,30.74,1.22,46.11,1.51,5.14.1,10.19-.5,15.15,1.56a12,12,0,0,1,7.73,9c2,9.35,2.51,18.87,3.19,28.38.82,11.31,1.18,22.65,2.73,33.94,1.16,8.46,1.74,17.13.55,25.78-.54,3.94-.18,8-.24,12-.15,9.55-4.18,14.47-13.49,15.89-6.5,1-13.09,1.26-19.65,1.76-15.08,1.15-30.19,1.26-45.27,2.08-13.43.72-26.87-.3-40.28-1.26-6.44-.46-12.91,0-19.37-.79-2.93-.35-5.9-.64-8.81-1.1-4.54-.71-7.74-6-8.4-12.6-1.21-12-.82-24,0-36,.09-1.32.08-2.75,1.63-3.18s2.73.52,3.5,1.83c1.7,2.89,3.46,5.25,7.56,4.66,2.35-.33,3.6,2,4,4.09,1.15,6.32,5.81,8.75,11.17,10.45.86.27,1.82.28,2.4,1.08C87,303.77,108.71,305,123.71,299.6c8.33-3,13.68-9.76,17.87-17.88,7.48-14.51,6.35-30.62,10-45.81.39-1.64.35-3.57,1.25-4.85,2.75-3.88.46-6.05-2.2-8.42-5.32-4.74-11.35-4.08-15,2-3.78,6.31-6.12,13.43-11,19.14a17.52,17.52,0,0,1-9.84,6.33c-15.87,3.55-27.82-5.32-33.58-16.92-3.92-7.89-9.38-13.76-17.51-17.25a28.63,28.63,0,0,0-12-2.54c-3.59.08-4.95-1.76-5.09-4.91-.46-10.09,5.13-20.57,18.94-20.56Zm-2,4.44c-3.37,0-6.74.07-10.1,0s-6.95.51-10.41.72c-7.23.43-12.4,8.81-11.21,15.48.23,1.28.61,1.91,2,1.54C63.94,206.9,80.1,220.14,84.55,230a27.9,27.9,0,0,0,18.31,15.62c5.4,1.54,11.33,1.86,16.48-2.66,3.49-3.06,5.07-7.08,7.42-10.71,3.07-4.74,4.39-10.55,8.8-14.49,2.72-2.42,5.62-4.29,9.46-2.91,4.14,1.49,8.12,3.27,11.2,6.61,1.31,1.42,2.63,2.84,4.65,3.36,1.21.31,2.68.6,2.7,2.31s-1.31,2.46-2.75,2.77a5.76,5.76,0,0,0-4.7,4.6c-.74,3.4-1.07,6.88-1.7,10.31-2.26,12.2-2.23,24.73-7.69,36.45-5.33,11.43-12.77,20.35-24.94,23.44-17.86,4.53-34.68,2.46-48.12-12-1.33-1.43-2.73-2.75-4.81-3.08a10.92,10.92,0,0,1-8.74-6.89c-1.64-4-3.4-6.78-8.34-7.28-2.66-.27-3-.07-3.14,2.33a183.12,183.12,0,0,0,.85,28.52c.57,4.75,2,6.09,6.35,6.83,16.89,2.84,34,1.59,51,3.06,8.1.7,16.19-.25,24.28-.45q21.22-.51,42.4-2c6-.42,12.16-.27,17.84-3,2.3-1.11,4-2.63,4.36-5a41.85,41.85,0,0,0,.95-8.84c-.63-13.5.6-27-2-40.52-2-10.41-1.35-21.34-1.9-32a112,112,0,0,0-2.37-20c-1.67-7.13-4.14-9.56-11.43-9.58-16.09-.06-32.14-1.43-48.21-1.57-9-.08-18.06-.07-27.07-.23C96.45,192.85,89.21,192.39,82,192.35Z" transform="translate(-28.81 -148.65)"/><path d="M185.27,388.32c-14.48.1-26.77-.49-39-1-13.21-.59-26.39-.21-39.58-.53-20.7-.5-41.4-1.13-62.12-.8-2.07,0-4.16-.11-6.22.09-6.77.64-10.74-2.89-9.2-9.43,2.21-9.34,3.2-19.11,8.74-27.48,1.6-2.41,2.12-5.53,3.19-8.3,4.18-10.78,8.09-14.67,19.36-13.14,7.47,1,15-.57,22.42-1,2.06-.11,4.09-.05,6.12,0,15.85.22,31.72,1,47.55.63,9.78-.24,19.54.27,29.32-.09,9.14-.34,18.33.26,27.48.75,3.53.19,5.27,3,6.11,6.19q4.36,16.27,8.57,32.58a59.32,59.32,0,0,0,3.13,9.17c2.36,5.31,0,9.87-5.67,11A92.1,92.1,0,0,1,185.27,388.32Zm-99-5.95c8,.44,19.48-.34,31,.52,13.27,1,26.62.05,40,.81,13,.74,26.17.12,39.25.19a39.38,39.38,0,0,0,7.66-1.1c2.86-.55,3.89-2.31,2.81-5.15-.5-1.32-.93-2.68-1.33-4-3.14-10.79-6.15-21.62-8.3-32.67-1.26-6.49-3-8.54-6.58-8.61-15.45-.29-30.9-.53-46.34-.83-3.5-.07-6.88,1.33-10.41.77-9.23-1.46-18.58-1-27.86-1.34-17.28-.66-34.58.13-51.85,1.18-2.94.18-4.36,1.41-5.93,3.44-3.59,4.63-4.14,10.56-6.91,15.52-4.09,7.32-6,15.34-7.6,23.45-1.1,5.45.77,7.55,6.29,7.05a26.21,26.21,0,0,1,4.66,0C57.46,382.69,70.13,382.14,86.3,382.37Z" transform="translate(-28.81 -148.65)"/><path d="M176.19,345.07c0,6.41-.24,6.57-6.33,7.84-2.32.48-4.65.18-6.93.56-1.69.28-3.33.48-3.45-1.74s1.48-3.31,3.5-3.21a33.51,33.51,0,0,0,5,.27c3-.29,3.67-2.25,4.22-4.87.39-1.85-.76-5.5,2.33-5.23,2.82.25,1.25,3.62,1.66,5.61A3.86,3.86,0,0,1,176.19,345.07Z" transform="translate(-28.81 -148.65)"/><path d="M165.29,362.9c.06,0,1.22.09,2.36.24,3.06.39,5.06-.38,4.92-4-.06-1.38,0-3.24,1.81-3.38,2-.16,1.71,1.91,2,3.15,1.52,5.58-1.9,9.79-7.5,8.93a64,64,0,0,0-7.29-.54c-1.37-.05-3.23.16-3.34-1.74s1.54-2.48,3.19-2.63C162.39,362.83,163.3,362.9,165.29,362.9Z" transform="translate(-28.81 -148.65)"/><path d="M106.95,368.84c-1.8,0-3.63.12-5.21-1-.89-.62-1.62-1.39-1.18-2.57a1.91,1.91,0,0,1,2.51-1.17,11.59,11.59,0,0,0,6.47-.25c2.82-1,3-3.61,3.72-5.88.35-1,.54-2.52,2.07-2.39,1.73.15,1.64,1.7,1.74,3C117.52,364.69,113.41,368.87,106.95,368.84Z" transform="translate(-28.81 -148.65)"/><path d="M55.64,370.48a37.69,37.69,0,0,1-4.62-.27c-1.31-.23-2.55-1-2.39-2.56s1.51-1.58,2.68-1.62c1.55-.06,3.1-.14,4.64,0,3.74.22,5.55-1.42,5.43-5.23,0-1.47-.33-3.62,1.85-3.53s1.69,2.22,1.74,3.7C65.25,368.75,63.62,370.4,55.64,370.48Z" transform="translate(-28.81 -148.65)"/><path d="M136.53,344.12c.66,4.06-1.48,6-5,7a22.16,22.16,0,0,1-7.27.54c-1.77-.06-3.09-.9-2.84-2.84s1.58-2.44,3.41-2.09a21.14,21.14,0,0,0,4.18.46c2.24,0,3.43-1.27,3.87-3.52.32-1.62-1.11-4.68,1.94-4.42C137.34,339.51,136.17,342.42,136.53,344.12Z" transform="translate(-28.81 -148.65)"/><path d="M154.42,344.73c0,7.44-2.8,10.13-9.74,9.33-1.5-.17-3-.42-3-2.31,0-1.62,1.43-1.89,2.77-2.14,6.08-1.11,6.06-1.13,6.28-7.22.05-1.48-.39-3.69,1.63-3.81,2.48-.14,1.83,2.26,2,3.81A21.22,21.22,0,0,1,154.42,344.73Z" transform="translate(-28.81 -148.65)"/><path d="M73.87,352.51a12.79,12.79,0,0,1-2.25-.5c-1.25-.45-2.51-1.18-2.2-2.75.34-1.74,1.79-2,3.33-1.89,5.56.43,5.55.43,7.39-5.15.39-1.19.7-2.81,2.32-2.65s1.89,1.59,1.94,3C84.58,347.69,79.79,352.58,73.87,352.51Z" transform="translate(-28.81 -148.65)"/><path d="M90.54,347.33c4.24,1.45,6.26-.71,7.13-4.82.25-1.18.63-2.9,2.36-2.44s1.43,2.08,1.18,3.55c-1.31,7.54-4.19,9.61-11.38,8.09-1.51-.32-3.44-.47-3.2-2.54S88.78,347.39,90.54,347.33Z" transform="translate(-28.81 -148.65)"/><path d="M125.26,366.51a4.87,4.87,0,0,1-3-.59c-.75-.52-1.51-1.08-1.38-2.14s1-1.46,1.92-1.57,2.06-.08,3.08-.17c3.81-.35,6.36-1.94,6.22-6.25,0-1.15-.07-2.61,1.47-2.69s1.91,1.33,2.17,2.67C136.93,361.74,132.43,366.36,125.26,366.51Z" transform="translate(-28.81 -148.65)"/><path d="M154.4,359.92c-.16,6.62-5.83,10.58-12.38,8.79a2.44,2.44,0,0,1-2-2.09,2.27,2.27,0,0,1,1.53-2.42,3.88,3.88,0,0,1,1.85-.47c4.26.46,7.31-.5,7.52-5.58a1.62,1.62,0,0,1,2.24-1.47C154.67,357.28,154.32,358.78,154.4,359.92Z" transform="translate(-28.81 -148.65)"/><path d="M90.15,368.1a9.62,9.62,0,0,1-2.64-.53c-1.22-.53-2.2-1.59-1.7-3.08.43-1.3,1.52-1.43,2.85-1.3,5.28.55,6.19-.09,7.69-5.17.35-1.19.68-2.42,2.15-2.23s1.61,1.58,1.81,2.7C101.15,363.08,96.28,368,90.15,368.1Z" transform="translate(-28.81 -148.65)"/><path d="M57.57,352.53c-1.55-.07-3.48.07-3.66-2-.21-2.42,1.87-2.6,3.53-2.41,4.48.49,6.42-1.72,6.83-5.88a10.84,10.84,0,0,1,.71-3,1.54,1.54,0,0,1,1.92-.9A1.51,1.51,0,0,1,68,340.2a69.74,69.74,0,0,1-1,7.26C66.08,351,63.17,352.48,57.57,352.53Z" transform="translate(-28.81 -148.65)"/><path d="M81.3,360c0,6.31-6,11.11-11.5,9.31-1.21-.4-2.68-.87-2.5-2.48s1.55-1.3,2.72-1.46c3.53-.46,7-1.06,7.06-5.87a2.31,2.31,0,0,1,2.55-2.37C81.32,357.36,81.2,358.92,81.3,360Z" transform="translate(-28.81 -148.65)"/><path d="M107.77,351.76a16.52,16.52,0,0,1-2-.12c-1.26-.18-2.29-.82-2.21-2.21s1.13-1.93,2.4-2.07a6.57,6.57,0,0,1,1.54,0c4,.53,6.17-1,5.93-5.31-.08-1.33.25-2.81,1.89-2.87,1.87-.06,1.64,1.59,1.73,2.83C117.59,349,115.11,351.79,107.77,351.76Z" transform="translate(-28.81 -148.65)"/><circle class="cls-2" cx="118.29" cy="78.42" r="2.2"/></g><g id="PeaceLink"><g class="cls-3"><rect class="cls-4" x="176.68" width="611.9" height="252.03"/></g></g></svg>